<svg xmlns="http://www.w3.org/2000/svg" viewBox="0 0 64 64"><g id="_28-Cash_register" data-name="28-Cash register"><polygon points="29 34 29 37 7 37 7 34 10 34 26 34 29 34" style="fill:#a8b7d4"/><rect x="7" y="31" width="3" height="3" style="fill:#5c6979"/><rect x="26" y="31" width="3" height="3" style="fill:#5c6979"/><polygon points="40 42 40 46 34 46 34.33 42 40 42" style="fill:#edf4fa"/><rect x="40" y="42" width="5" height="4" style="fill:#edf4fa"/><rect x="45" y="42" width="5" height="4" style="fill:#edf4fa"/><polygon points="55.67 42 56 46 50 46 50 42 55.67 42" style="fill:#edf4fa"/><polygon points="55.33 38 55.67 42 50 42 50 38 55.33 38" style="fill:#edf4fa"/><rect x="45" y="38" width="5" height="4" style="fill:#edf4fa"/><rect x="40" y="38" width="5" height="4" style="fill:#edf4fa"/><polygon points="40 38 40 42 34.33 42 34.67 38 40 38" style="fill:#edf4fa"/><polygon points="40 34 40 38 34.67 38 35 34 40 34" style="fill:#edf4fa"/><rect x="40" y="34" width="5" height="4" style="fill:#edf4fa"/><rect x="45" y="34" width="5" height="4" style="fill:#edf4fa"/><polygon points="55 34 55.33 38 50 38 50 34 55 34" style="fill:#edf4fa"/><polygon points="49 27 49 29 41 29 41 27 41 23 49 23 49 27" style="fill:#bd6f08"/><path d="M34,20H56V4H34ZM59,3V21a2.006,2.006,0,0,1-2,2H33a2.006,2.006,0,0,1-2-2V3a2.006,2.006,0,0,1,2-2H57A2.006,2.006,0,0,1,59,3Z" style="fill:#ffad39"/><rect x="34" y="4" width="22" height="16" style="fill:#edf4fa"/><rect x="19" y="55" width="26" height="4" style="fill:#e03e3e"/><path d="M63,51.37V59a4,4,0,0,1-4,4H5a4,4,0,0,1-4-4V51.37c0-.13,0-.25.01-.37H62.99C63,51.12,63,51.24,63,51.37ZM45,59V55H19v4Z" style="fill:#fc9e20"/><path d="M55.67,42l-.34-4L55,34H35l-.33,4-.34,4L34,46H56Zm7.28,8.63c.01.13.03.25.04.37H1.01c.01-.12.03-.24.04-.37L3.78,28.75A2.007,2.007,0,0,1,5.77,27H10v4H7v6H29V31H26V27H41v2h8V27h9.23a2.007,2.007,0,0,1,1.99,1.75Z" style="fill:#febd55"/><path d="M45,17a8,8,0,0,1-8-8V4H34V20H56V17Z" style="fill:#c1cfe8"/><path d="M45,25h4V23H41v6h2V27A2,2,0,0,1,45,25Z" style="fill:#9e5d07"/><path d="M61,59H12a4,4,0,0,1-4-4V51H1.01c-.01.12-.01.24-.01.37V59a4,4,0,0,0,4,4H59a4,4,0,0,0,4-4V57A2,2,0,0,1,61,59Z" style="fill:#e68c15"/><path d="M8.694,42.668A4,4,0,0,1,12.681,39H27a1,1,0,0,0,1-1V37H7V31h3V27H5.77a2.007,2.007,0,0,0-1.99,1.75L1.05,50.63c-.01.13-.03.25-.04.37H8Z" style="fill:#fc9e20"/><path d="M41,27v2h8l-1.414,1.414A2,2,0,0,1,46.172,31H33.5A1.5,1.5,0,0,1,32,29.5h0A1.5,1.5,0,0,1,33.5,28H38V27Z" style="fill:#fc9e20"/><path d="M19,55v4h3V58a1,1,0,0,1,1-1H41a1,1,0,0,1,1,1v1h3V55Z" style="fill:#a81e29"/><path d="M10,31v3H7V33H8a1,1,0,0,0,1-1V31Z" style="fill:#393d48"/><path d="M26,31v3h3V33H28a1,1,0,0,1-1-1V31Z" style="fill:#393d48"/><path d="M7,34v3H29V34H28a2,2,0,0,1-2,2H10a2,2,0,0,1-2-2H7Z" style="fill:#8394b2"/><polygon points="26 27 26 31 26 34 10 34 10 31 10 27 10 14 12 16 14 14 16 16 18 14 20 16 22 14 24 16 26 14 26 27" style="fill:#edf4fa"/><rect x="10" y="32" width="16" height="2" style="fill:#d6e0eb"/><path d="M33,24h7v5a1,1,0,0,0,1,1h8a1,1,0,0,0,1-1V24h7a3,3,0,0,0,3-3V3a3,3,0,0,0-3-3H33a3,3,0,0,0-3,3V21A3,3,0,0,0,33,24Zm15,4H42V24h6ZM32,3a1,1,0,0,1,1-1H57a1,1,0,0,1,1,1V21a1,1,0,0,1-1,1H33a1,1,0,0,1-1-1Z"/><path d="M63.946,50.505,61.211,28.628A3,3,0,0,0,58.234,26H51v2h7.234a1,1,0,0,1,.993.876l2.735,21.875a5.183,5.183,0,0,1,.038.623V59a3,3,0,0,1-3,3H5a3,3,0,0,1-3-3V51.374a5.125,5.125,0,0,1,.038-.621L4.773,28.876A1,1,0,0,1,5.766,28H8V26H5.766a3,3,0,0,0-2.977,2.628L.054,50.507A7.182,7.182,0,0,0,0,51.374V59a5.006,5.006,0,0,0,5,5H59a5.006,5.006,0,0,0,5-5V51.374A7.24,7.24,0,0,0,63.946,50.505Z"/><rect x="28" y="26" width="11" height="2"/><path d="M7,30a1,1,0,0,0-1,1v6a1,1,0,0,0,1,1H29a1,1,0,0,0,1-1V31a1,1,0,0,0-1-1H27V14a1,1,0,0,0-1.707-.707L24,14.586l-1.293-1.293a1,1,0,0,0-1.414,0L20,14.586l-1.293-1.293a1,1,0,0,0-1.414,0L16,14.586l-1.293-1.293a1,1,0,0,0-1.414,0L12,14.586l-1.293-1.293A1,1,0,0,0,9,14V30Zm1,2H9v1H8Zm0,4V35H28v1Zm20-4v1H27V32ZM11,16.414l.293.293a1,1,0,0,0,1.414,0L14,15.414l1.293,1.293a1,1,0,0,0,1.414,0L18,15.414l1.293,1.293a1,1,0,0,0,1.414,0L22,15.414l1.293,1.293a1,1,0,0,0,1.414,0L25,16.414V33H11Z"/><path d="M55,33H35a1,1,0,0,0-1,.917l-1,12A1,1,0,0,0,34,47H56a1,1,0,0,0,1-1.083l-1-12A1,1,0,0,0,55,33Zm-.753,4H51V35h3.08ZM41,39h3v2H41Zm-2,2H35.42l.167-2H39Zm5-4H41V35h3Zm2-2h3v2H46Zm-2,8v2H41V43Zm2,0h3v2H46Zm0-2V39h3v2Zm5-2h3.413l.167,2H51ZM39,35v2H35.753l.167-2Zm-3.746,8H39v2H35.087ZM51,45V43h3.746l.167,2Z"/><rect x="7" y="50" width="54" height="2"/><rect x="3" y="50" width="2" height="2"/><path d="M34,21H56a1,1,0,0,0,1-1V9H55V19H35V5H55V7h2V4a1,1,0,0,0-1-1H34a1,1,0,0,0-1,1V20A1,1,0,0,0,34,21Z"/><path d="M19,54a1,1,0,0,0-1,1v4a1,1,0,0,0,1,1H45a1,1,0,0,0,1-1V55a1,1,0,0,0-1-1Zm25,4H20V56H44Z"/><rect x="13" y="18" width="2" height="2"/><rect x="17" y="18" width="2" height="2"/><rect x="13" y="21" width="2" height="2"/><rect x="17" y="21" width="2" height="2"/><rect x="13" y="25" width="10" height="2"/><rect x="13" y="29" width="10" height="2"/><rect x="37" y="7" width="2" height="2"/><rect x="41" y="7" width="2" height="2"/><rect x="37" y="10" width="2" height="2"/><rect x="41" y="10" width="2" height="2"/></g></svg>