<svg width="194" height="194" viewBox="0 0 194 194" fill="none" xmlns="http://www.w3.org/2000/svg">
<circle cx="97" cy="97" r="97" fill="#FFC843"/>
<circle cx="97" cy="97" r="78" fill="#D49000"/>
<path d="M76.1475 73.3154C80.7467 73.3154 84.5371 73.8701 87.5186 74.9795C90.5231 76.0889 92.7534 77.7645 94.2095 80.0063C95.6655 82.2482 96.3936 85.0794 96.3936 88.5C96.3936 90.8112 95.9544 92.8335 95.0762 94.5669C94.1979 96.3003 93.0423 97.7679 91.6094 98.9697C90.1764 100.172 88.6279 101.154 86.9639 101.917L101.871 124H89.9453L77.8462 104.551H72.126V124H61.3789V73.3154H76.1475ZM75.3848 82.1211H72.126V95.8149H75.5928C79.152 95.8149 81.6943 95.2256 83.2197 94.0469C84.7682 92.8451 85.5425 91.0885 85.5425 88.7773C85.5425 86.3737 84.7104 84.6634 83.0464 83.6465C81.4054 82.6296 78.8516 82.1211 75.3848 82.1211ZM134.459 112.49C134.459 115.125 133.835 117.355 132.587 119.181C131.362 120.984 129.525 122.359 127.075 123.307C124.625 124.231 121.574 124.693 117.922 124.693C115.218 124.693 112.896 124.52 110.954 124.173C109.036 123.827 107.094 123.249 105.13 122.44V113.704C107.233 114.651 109.486 115.437 111.89 116.061C114.317 116.662 116.443 116.962 118.269 116.962C120.326 116.962 121.794 116.662 122.672 116.061C123.573 115.437 124.024 114.628 124.024 113.634C124.024 112.987 123.839 112.409 123.469 111.901C123.123 111.369 122.36 110.78 121.181 110.133C120.002 109.463 118.153 108.596 115.634 107.533C113.208 106.516 111.208 105.487 109.637 104.447C108.088 103.407 106.933 102.182 106.17 100.772C105.43 99.3395 105.061 97.5252 105.061 95.3296C105.061 91.7472 106.447 89.0547 109.221 87.252C112.017 85.4261 115.75 84.5132 120.418 84.5132C122.822 84.5132 125.11 84.7559 127.283 85.2412C129.478 85.7266 131.732 86.5008 134.043 87.564L130.854 95.1909C128.935 94.3589 127.121 93.6771 125.411 93.1455C123.723 92.6139 122.002 92.3481 120.245 92.3481C118.697 92.3481 117.529 92.5562 116.744 92.9722C115.958 93.3882 115.565 94.0238 115.565 94.8789C115.565 95.5029 115.761 96.0576 116.154 96.543C116.57 97.0283 117.356 97.5715 118.512 98.1724C119.69 98.7502 121.412 99.5013 123.677 100.426C125.873 101.327 127.78 102.275 129.397 103.269C131.015 104.239 132.263 105.453 133.142 106.909C134.02 108.342 134.459 110.202 134.459 112.49Z" fill="#FFC843"/>
</svg>
