<?xml version="1.0" encoding="iso-8859-1"?>
<!-- Generator: Adobe Illustrator 16.0.0, SVG Export Plug-In . SVG Version: 6.00 Build 0)  -->
<!DOCTYPE svg PUBLIC "-//W3C//DTD SVG 1.1//EN" "http://www.w3.org/Graphics/SVG/1.1/DTD/svg11.dtd">
<svg xmlns="http://www.w3.org/2000/svg" xmlns:xlink="http://www.w3.org/1999/xlink" version="1.1" id="Layer_1" x="0px" y="0px" width="512" height="512" viewBox="0 0 470 470" style="enable-background:new 0 0 470 470;" xml:space="preserve">
<g>
	<g>
		<circle style="fill:#FD9A0C;" cx="235" cy="235" r="227.5"/>
		<circle style="fill:#FFAD38;" cx="235" cy="235" r="147.851"/>
		<path style="fill:#FFC066;" d="M354.245,242.5v-15c-1.398-22.433-8.997-43.21-21.122-60.623l21.423-21.423v-30h-30l-21.423,21.422    C283.784,123.41,260.3,115.5,235,115.5s-48.784,7.91-68.123,21.376l-21.423-21.422h-30v30    c0.004,0.003,21.423,21.423,21.423,21.423c-12.125,17.412-19.724,38.19-21.122,60.623v15c1.398,22.433,8.997,43.21,21.122,60.623    l-21.418,21.42c-0.004,0.003-0.004,30.003-0.004,30.003h30l21.423-21.422C186.216,346.59,209.7,354.5,235,354.5    s48.784-7.91,68.123-21.376l21.423,21.422h30v-30l-21.422-21.423C345.249,285.71,352.847,264.933,354.245,242.5z"/>
		
			<rect x="220" y="72.15" transform="matrix(0.7071 0.7071 -0.7071 0.7071 130.454 -140.6445)" style="fill:#FFC066;" width="30" height="30"/>
		
			<rect x="72.15" y="220" transform="matrix(0.7071 -0.7071 0.7071 0.7071 -140.6433 130.4514)" style="fill:#FFC066;" width="30" height="30"/>
		
			<rect x="220" y="367.85" transform="matrix(-0.7071 -0.7071 0.7071 -0.7071 130.454 819.7365)" style="fill:#FFC066;" width="30" height="30"/>
		
			<rect x="367.85" y="220" transform="matrix(-0.7071 0.7071 -0.7071 -0.7071 819.7377 130.459)" style="fill:#FFC066;" width="30" height="30"/>
		<polygon style="fill:#FFAD38;" points="235,235 209.98,280.52 171.92,260.52 171.68,260.52 171.68,171.68 209.48,171.68     209.48,171.92   "/>
		<polygon style="fill:#FFAD38;" points="298.32,209.48 298.32,298.32 260.52,298.32 260.52,298.08 235,235 260.02,189.48     298.08,209.48   "/>
		<polygon style="fill:#FD9A0C;" points="260.52,298.08 260.52,298.32 171.68,298.32 171.68,260.52 171.92,260.52 209.98,260.52     235,235 260.52,260.02   "/>
		<polygon style="fill:#FD9A0C;" points="298.32,171.68 298.32,209.48 298.08,209.48 260.02,209.48 235,235 209.48,209.98     209.48,171.92 209.48,171.68   "/>
		<path style="fill:#FFC066;" d="M235,255c-11.028,0-20-8.972-20-20c0-11.028,8.972-20,20-20s20,8.972,20,20    C255,246.028,246.028,255,235,255z"/>
	</g>
	<path d="M401.17,68.83C356.785,24.444,297.771,0,235,0S113.215,24.444,68.83,68.83C24.444,113.215,0,172.229,0,235   c0,62.771,24.444,121.785,68.83,166.17C113.215,445.556,172.229,470,235,470s121.785-24.444,166.17-68.83   C445.556,356.785,470,297.771,470,235C470,172.229,445.556,113.215,401.17,68.83z M235,455c-121.309,0-220-98.691-220-220   S113.691,15,235,15s220,98.691,220,220S356.309,455,235,455z M310.055,46.755c0.869-1.954,2.448-3.452,4.444-4.218   c1.995-0.765,4.17-0.708,6.122,0.163c4.025,1.791,5.846,6.528,4.053,10.559c-1.324,2.977-4.255,4.748-7.321,4.748   c-1.085,0-2.187-0.222-3.24-0.69C310.081,55.52,308.263,50.783,310.055,46.755z M270.393,41.283   c-1.165-1.794-1.561-3.934-1.115-6.026c0.44-2.081,1.672-3.875,3.466-5.041c1.793-1.165,3.934-1.562,6.026-1.115   c4.306,0.919,7.068,5.17,6.159,9.478c-0.001,0.005-0.002,0.01-0.003,0.015c-0.801,3.754-4.129,6.332-7.822,6.332   c-0.551,0-1.11-0.057-1.671-0.177C273.353,44.309,271.559,43.077,270.393,41.283z M185.074,38.594   c-0.913-4.323,1.85-8.574,6.155-9.493c2.091-0.446,4.232-0.051,6.026,1.115c1.794,1.166,3.026,2.96,3.469,5.054   c0.442,2.087,0.046,4.223-1.117,6.013c-1.166,1.794-2.959,3.026-5.053,3.469c-0.557,0.119-1.114,0.176-1.663,0.176   C189.205,44.928,185.875,42.35,185.074,38.594z M145.327,53.259c-1.793-4.03,0.027-8.768,4.058-10.561   c1.946-0.868,4.121-0.925,6.117-0.16c1.997,0.766,3.575,2.264,4.444,4.218c1.792,4.027-0.026,8.764-4.053,10.559   c-1.055,0.469-2.159,0.691-3.245,0.691C149.58,58.006,146.651,56.235,145.327,53.259z M109.503,75.878   c-1.259-1.732-1.766-3.849-1.43-5.96c0.335-2.112,1.474-3.966,3.205-5.221c1.725-1.252,3.841-1.759,5.952-1.424   c2.112,0.335,3.966,1.474,5.221,3.205c1.253,1.728,1.759,3.839,1.425,5.947c-0.334,2.106-1.467,3.958-3.19,5.214   c-1.423,1.031-3.071,1.528-4.704,1.528C113.504,79.168,111.064,78.026,109.503,75.878z M78.567,94.149   c2.951-3.279,8.019-3.545,11.298-0.595c0.002,0.002,0.005,0.004,0.007,0.007c3.271,2.951,3.535,8.017,0.587,11.291   c-1.424,1.587-3.389,2.525-5.526,2.638c-0.144,0.007-0.287,0.011-0.43,0.011c-1.982,0-3.867-0.723-5.349-2.061   C75.883,102.497,75.616,97.428,78.567,94.149z M52.702,129.749c2.207-3.819,7.109-5.134,10.929-2.927   c3.82,2.206,5.133,7.109,2.927,10.929c-1.48,2.563-4.175,3.998-6.941,3.998c-1.356,0-2.73-0.345-3.987-1.071   C51.809,138.472,50.496,133.569,52.702,129.749z M49.539,168.792c0.969,1.901,1.141,4.065,0.484,6.095   c-0.665,2.044-2.079,3.698-3.984,4.667c-1.141,0.58-2.376,0.874-3.62,0.874c-0.833,0-1.668-0.131-2.483-0.396   c-2.026-0.657-3.681-2.069-4.653-3.974c-0.971-1.905-1.142-4.074-0.48-6.108c0.661-2.032,2.073-3.685,3.977-4.654   c1.901-0.968,4.064-1.14,6.094-0.483C46.91,165.471,48.567,166.884,49.539,168.792z M27.394,218.869   c-1.346-1.661-1.964-3.746-1.741-5.872c0.227-2.133,1.265-4.04,2.922-5.382c1.664-1.346,3.751-1.964,5.881-1.737   c4.381,0.467,7.569,4.407,7.109,8.791c-0.431,4.104-3.911,7.165-7.95,7.165c-0.278,0-0.559-0.014-0.841-0.044   C30.65,221.566,28.739,220.529,27.394,218.869z M34.445,264.123c-0.286,0.03-0.572,0.045-0.856,0.045   c-1.818,0-3.575-0.619-5.014-1.784c-1.658-1.342-2.695-3.25-2.921-5.371c-0.225-2.138,0.394-4.223,1.739-5.883   c1.345-1.66,3.256-2.697,5.38-2.92c4.392-0.46,8.331,2.734,8.792,7.121C42.026,259.719,38.832,263.663,34.445,264.123z    M50.019,295.102c0.66,2.042,0.488,4.206-0.48,6.107c-0.972,1.907-2.628,3.32-4.665,3.979c-0.808,0.263-1.64,0.393-2.469,0.393   c-1.244,0-2.482-0.294-3.625-0.876c-1.903-0.97-3.315-2.623-3.977-4.654c-0.661-2.034-0.491-4.203,0.48-6.108   c0.97-1.903,2.623-3.314,4.653-3.974c2.033-0.66,4.199-0.491,6.103,0.478C47.944,291.416,49.358,293.069,50.019,295.102z    M66.558,332.249c2.206,3.82,0.893,8.723-2.927,10.929c-1.257,0.726-2.631,1.071-3.987,1.071c-2.767,0-5.461-1.434-6.941-3.998   c-2.206-3.82-0.893-8.723,2.927-10.929C59.449,327.116,64.351,328.429,66.558,332.249z M90.465,365.154   c2.941,3.268,2.678,8.333-0.593,11.285c-1.53,1.377-3.448,2.055-5.357,2.055c-2.19,0-4.371-0.892-5.948-2.644   c-2.949-3.276-2.685-8.339,0.587-11.291v0c1.588-1.434,3.639-2.158,5.779-2.049C87.071,362.622,89.035,363.561,90.465,365.154z    M123.875,397.574c0.335,2.114-0.175,4.232-1.436,5.962c-1.244,1.716-3.098,2.854-5.21,3.19c-0.425,0.068-0.851,0.101-1.273,0.101   c-1.675,0-3.303-0.525-4.685-1.529c-1.725-1.25-2.863-3.104-3.199-5.216c-0.336-2.112,0.171-4.228,1.428-5.958   c0,0,0.001-0.001,0.002-0.002c2.59-3.563,7.597-4.36,11.167-1.772C122.408,393.616,123.541,395.468,123.875,397.574z    M159.945,423.245c-0.869,1.954-2.448,3.452-4.444,4.218c-0.931,0.357-1.9,0.535-2.868,0.535c-1.107,0-2.212-0.233-3.253-0.697   c-4.025-1.791-5.846-6.528-4.053-10.559c1.792-4.031,6.533-5.852,10.561-4.058C159.919,414.48,161.737,419.217,159.945,423.245z    M199.607,428.717c1.165,1.794,1.561,3.934,1.115,6.026c-0.44,2.081-1.672,3.875-3.466,5.041c-1.313,0.853-2.812,1.293-4.341,1.293   c-0.56,0-1.125-0.059-1.685-0.179c-4.306-0.919-7.068-5.17-6.159-9.478c0.001-0.005,0.002-0.01,0.003-0.015   c0.92-4.314,5.177-7.077,9.493-6.155C196.647,425.691,198.441,426.923,199.607,428.717z M243,437.5c0,4.411-3.589,8-8,8   s-8-3.589-8-8s3.589-8,8-8S243,433.089,243,437.5z M284.926,431.406c0.913,4.323-1.85,8.574-6.155,9.493   c-0.561,0.12-1.125,0.179-1.685,0.179c-1.53,0-3.028-0.44-4.341-1.293c-1.794-1.166-3.026-2.96-3.469-5.053   c-0.442-2.088-0.046-4.223,1.117-6.014c1.166-1.794,2.959-3.026,5.053-3.469C279.744,424.328,284.005,427.091,284.926,431.406z    M324.673,416.741c1.793,4.03-0.027,8.768-4.058,10.561c-1.038,0.463-2.141,0.695-3.248,0.695c-0.968,0-1.938-0.178-2.869-0.535   c-1.997-0.766-3.575-2.264-4.444-4.218c-1.792-4.027,0.026-8.764,4.053-10.559C318.144,410.89,322.88,412.71,324.673,416.741z    M360.497,394.122c1.259,1.732,1.766,3.849,1.43,5.96c-0.335,2.112-1.474,3.966-3.205,5.221c-1.376,1-3.003,1.525-4.678,1.525   c-0.423,0-0.848-0.033-1.274-0.101c-2.112-0.335-3.966-1.474-5.221-3.205c-1.253-1.728-1.759-3.839-1.425-5.947   c0.334-2.106,1.467-3.958,3.19-5.214C352.898,389.765,357.908,390.56,360.497,394.122z M391.433,375.851   c-1.577,1.752-3.76,2.645-5.95,2.645c-1.908,0-3.821-0.676-5.348-2.05c-0.002-0.002-0.005-0.004-0.007-0.006   c-3.271-2.952-3.535-8.017-0.587-11.292c1.424-1.586,3.389-2.525,5.526-2.638c2.137-0.11,4.19,0.616,5.779,2.049   C394.117,367.503,394.384,372.572,391.433,375.851z M417.298,340.251c-1.48,2.563-4.175,3.998-6.941,3.998   c-1.356,0-2.73-0.345-3.987-1.071c-3.82-2.206-5.133-7.109-2.927-10.929c2.206-3.819,7.108-5.134,10.929-2.927   C418.191,331.528,419.504,336.431,417.298,340.251z M434.716,293.942c0.971,1.905,1.142,4.074,0.48,6.108   c-0.661,2.032-2.073,3.685-3.977,4.654c-1.142,0.581-2.378,0.875-3.623,0.875c-0.828,0-1.66-0.13-2.471-0.393   c-2.037-0.659-3.693-2.072-4.665-3.979c-0.969-1.901-1.141-4.065-0.484-6.095c0.665-2.044,2.079-3.698,3.984-4.667   c1.904-0.967,4.072-1.138,6.103-0.478C432.09,290.625,433.745,292.037,434.716,293.942z M444.347,257.002   c-0.227,2.133-1.265,4.04-2.922,5.382c-1.438,1.164-3.193,1.783-5.018,1.783c-0.286,0-0.574-0.015-0.863-0.046   c-4.381-0.467-7.569-4.407-7.109-8.791c0.46-4.387,4.409-7.58,8.792-7.121c2.124,0.223,4.035,1.26,5.38,2.92   C443.952,252.792,444.57,254.876,444.347,257.002z M435.555,205.877c2.115-0.226,4.206,0.391,5.87,1.738   c1.658,1.342,2.695,3.25,2.921,5.371c0.225,2.138-0.394,4.223-1.739,5.883c-1.345,1.66-3.256,2.697-5.38,2.92   c-0.283,0.03-0.563,0.044-0.841,0.044c-4.04,0-7.52-3.06-7.95-7.165C427.974,210.281,431.168,206.337,435.555,205.877z    M419.981,174.898c-0.66-2.042-0.488-4.206,0.48-6.107c0.972-1.907,2.628-3.32,4.665-3.979c2.021-0.656,4.189-0.487,6.094,0.483   c1.903,0.97,3.315,2.623,3.977,4.654c0.661,2.034,0.491,4.203-0.48,6.108c-0.97,1.903-2.623,3.314-4.653,3.974   c-0.814,0.265-1.651,0.396-2.483,0.396c-1.244,0-2.479-0.293-3.62-0.874C422.056,178.584,420.642,176.931,419.981,174.898z    M417.298,129.749c2.206,3.82,0.893,8.723-2.927,10.929c-1.257,0.726-2.631,1.071-3.987,1.071c-2.767,0-5.461-1.434-6.941-3.998   c-2.206-3.82-0.893-8.723,2.927-10.929C410.19,124.616,415.091,125.929,417.298,129.749z M379.535,104.846   c-2.941-3.268-2.678-8.333,0.593-11.285c3.286-2.957,8.354-2.691,11.305,0.588c2.949,3.276,2.685,8.339-0.587,11.291v0   c-1.482,1.337-3.368,2.061-5.349,2.061c-0.143,0-0.286-0.004-0.43-0.011C382.929,107.378,380.965,106.439,379.535,104.846z    M346.125,72.426c-0.335-2.114,0.175-4.232,1.436-5.962c1.244-1.716,3.098-2.854,5.21-3.19c2.112-0.337,4.228,0.171,5.958,1.428   c1.725,1.25,2.863,3.104,3.199,5.216c0.336,2.112-0.171,4.229-1.428,5.958c0,0-0.001,0.001-0.002,0.002   c-1.563,2.149-4.006,3.292-6.482,3.292c-1.627,0-3.269-0.494-4.684-1.52C347.592,76.384,346.459,74.532,346.125,72.426z M227,32.5   c0-4.411,3.589-8,8-8s8,3.589,8,8s-3.589,8-8,8S227,36.911,227,32.5z M389.881,259.789l19.486-19.486   c2.929-2.929,2.929-7.678,0-10.606l-19.486-19.486c-3.848-24.182-13.427-47.302-27.835-67.181v-27.576c0-4.142-3.358-7.5-7.5-7.5   H326.97c-19.879-14.408-42.999-23.987-67.18-27.835l-19.486-19.486c-2.929-2.929-7.678-2.929-10.606,0L210.21,80.119   c-24.183,3.848-47.302,13.427-67.18,27.835h-27.577c-4.142,0-7.5,3.358-7.5,7.5v27.576c-14.408,19.878-23.987,42.998-27.835,67.18   l-19.486,19.486c-2.929,2.929-2.929,7.678,0,10.606l19.486,19.486c3.849,24.187,13.431,47.311,27.843,67.191   c-0.005,0.681-0.006,1.426-0.006,2.25l-0.002,25.315c0,4.142,3.358,7.5,7.5,7.5h27.577c19.878,14.408,42.998,23.987,67.18,27.835   l19.486,19.486c1.464,1.464,3.384,2.197,5.303,2.197s3.839-0.732,5.303-2.197l19.486-19.486   c24.183-3.848,47.302-13.427,67.18-27.835h27.577c4.142,0,7.5-3.358,7.5-7.5v-27.575   C376.454,307.091,386.033,283.971,389.881,259.789z M342.754,302.147c10.75-17.178,17.141-36.489,18.797-56.627l13.298,13.298   c-3.265,19.266-10.552,37.759-21.312,54.112L342.754,302.147z M353.538,157.069c10.759,16.353,18.047,34.845,21.312,54.112   l-13.298,13.298c-1.657-20.138-8.047-39.449-18.797-56.626L353.538,157.069z M382.851,245.607L372.244,235l10.607-10.607   L393.457,235L382.851,245.607z M211.181,95.15l13.298,13.298c-20.138,1.657-39.449,8.047-56.626,18.797l-10.784-10.784   C173.421,105.704,191.914,98.415,211.181,95.15z M258.819,95.15c19.267,3.265,37.759,10.553,54.112,21.312l-10.784,10.784   c-17.177-10.75-36.488-17.141-56.626-18.797L258.819,95.15z M235,76.543l10.607,10.606L235,97.756l-10.607-10.607L235,76.543z    M116.462,312.932c-10.759-16.353-18.047-34.846-21.312-54.113l13.298-13.298c1.657,20.138,8.047,39.449,18.797,56.627   L116.462,312.932z M108.449,224.479L95.15,211.181c3.265-19.267,10.553-37.76,21.312-54.112c3.47,3.47,7.687,7.687,10.784,10.785   C116.496,185.03,110.105,204.341,108.449,224.479z M87.149,224.393L97.756,235l-10.607,10.607L76.543,235L87.149,224.393z    M258.819,374.85l-13.298-13.298c20.138-1.657,39.449-8.047,56.626-18.797l10.784,10.784   C296.579,364.297,278.086,371.585,258.819,374.85z M211.181,374.85c-19.267-3.265-37.759-10.553-54.112-21.312l10.784-10.784   c17.177,10.75,36.488,17.141,56.626,18.797L211.181,374.85z M235,393.457l-10.607-10.606L235,372.244l10.607,10.607L235,393.457z    M347.046,347.046h-19.394l-19.227-19.226c-2.568-2.568-6.608-2.926-9.589-0.852C280.018,340.073,257.944,347,235,347   s-45.018-6.927-63.836-20.031c-2.982-2.077-7.022-1.717-9.589,0.852l-19.227,19.226h-19.394c0-7.064,0.001-15.108,0.002-19.395   l19.224-19.225c2.568-2.569,2.927-6.608,0.851-9.589c-11.67-16.758-18.425-36.1-19.768-56.336h48.661c4.142,0,7.5-3.358,7.5-7.5   s-3.358-7.5-7.5-7.5h-48.661c1.343-20.236,8.099-39.579,19.769-56.336c2.076-2.981,1.717-7.021-0.851-9.589   c-11.074-11.074-16.509-16.51-19.227-19.217v-19.403h19.394l19.227,19.226c2.569,2.569,6.609,2.927,9.589,0.852   C189.982,129.927,212.056,123,235,123s45.018,6.927,63.836,20.031c2.981,2.076,7.021,1.717,9.589-0.852l19.227-19.226h19.394   v19.394l-19.226,19.227c-2.569,2.568-2.927,6.608-0.852,9.589c11.67,16.758,18.426,36.1,19.769,56.336h-48.418   c-4.142,0-7.5,3.358-7.5,7.5s3.358,7.5,7.5,7.5h48.418c-1.343,20.236-8.099,39.579-19.768,56.336   c-2.076,2.981-1.717,7.021,0.852,9.589l19.226,19.227V347.046z M298.319,253.018c-4.142,0-7.5,3.358-7.5,7.5v30.301h-22.801   v-30.801c0-1.989-0.79-3.897-2.197-5.303l-10.508-10.508c1.278-2.809,1.997-5.924,1.997-9.206c0-3.549-0.837-6.904-2.317-9.886   l8.132-8.132h34.952c0.041,0,0.081-0.005,0.121-0.006c0.041,0,0.081,0.006,0.122,0.006c4.142,0,7.5-3.358,7.5-7.5v-37.801   c0-4.142-3.358-7.5-7.5-7.5H171.681c-4.142,0-7.5,3.358-7.5,7.5v37.801c0,4.142,3.358,7.5,7.5,7.5s7.5-3.358,7.5-7.5v-30.301   h22.801v30.801c0,1.989,0.79,3.897,2.197,5.303l10.508,10.508c-1.278,2.809-1.997,5.924-1.997,9.206   c0,3.549,0.837,6.904,2.317,9.886l-8.132,8.132h-34.952c-0.041,0-0.081,0.005-0.121,0.006c-0.041,0-0.081-0.006-0.122-0.006   c-4.142,0-7.5,3.358-7.5,7.5v37.801c0,4.142,3.358,7.5,7.5,7.5h126.638c4.142,0,7.5-3.358,7.5-7.5v-37.801   C305.819,256.375,302.461,253.018,298.319,253.018z M227.691,235c0-4.03,3.279-7.309,7.309-7.309s7.309,3.279,7.309,7.309   s-3.279,7.309-7.309,7.309S227.691,239.03,227.691,235z M290.819,179.181v22.801h-30.801c-1.989,0-3.897,0.79-5.303,2.197   l-10.508,10.508c-2.809-1.278-5.924-1.997-9.206-1.997c-3.548,0-6.904,0.837-9.885,2.317l-8.132-8.132v-27.695H290.819z    M179.181,268.018h30.801c1.989,0,3.897-0.79,5.303-2.197l10.508-10.508c2.809,1.278,5.924,1.997,9.206,1.997   c3.548,0,6.904-0.837,9.885-2.317l8.132,8.132v27.695h-73.836V268.018z"/>
</g>















</svg>
