<?xml version="1.0" encoding="iso-8859-1"?>
<!-- Generator: Adobe Illustrator 18.1.1, SVG Export Plug-In . SVG Version: 6.00 Build 0)  -->
<svg version="1.1" id="Capa_1" xmlns="http://www.w3.org/2000/svg" xmlns:xlink="http://www.w3.org/1999/xlink" x="0px" y="0px"
	 viewBox="0 0 17.37 17.37" style="enable-background:new 0 0 17.37 17.37;" xml:space="preserve">
<g>
	<g>
		<path style="fill:#030104;" d="M12.957,2.071c0.155,0.039,0.295,0.051,0.426,0.046c0.206-0.012,0.389-0.066,0.551-0.155
			c0.164-0.088,0.307-0.216,0.425-0.383c0.116-0.173,0.215-0.377,0.254-0.69c-0.285-0.131-0.512-0.156-0.72-0.148
			c-0.206,0.012-0.388,0.065-0.55,0.156s-0.304,0.217-0.425,0.386c-0.086,0.129-0.164,0.275-0.213,0.471
			C4.923,7.391,2.74,17.186,2.719,17.285l0.397,0.085C3.137,17.271,5.289,7.615,12.957,2.071z"/>
		<path style="fill:#030104;" d="M11.218,1.739c0.144,0.152,0.321,0.294,0.615,0.402c0.19-0.249,0.265-0.464,0.304-0.669
			c0.033-0.203,0.021-0.393-0.029-0.572c-0.052-0.177-0.144-0.346-0.28-0.499C11.685,0.249,11.507,0.107,11.211,0
			c-0.191,0.25-0.266,0.465-0.305,0.669c-0.033,0.203-0.022,0.392,0.031,0.571C10.988,1.418,11.08,1.585,11.218,1.739z"/>
		<path style="fill:#030104;" d="M14.182,2.791c-0.168-0.12-0.344-0.192-0.527-0.222c-0.183-0.031-0.373-0.021-0.571,0.037
			c-0.198,0.062-0.403,0.16-0.629,0.378c0.142,0.28,0.302,0.44,0.47,0.564c0.168,0.12,0.343,0.191,0.527,0.223
			c0.182,0.033,0.372,0.021,0.569-0.034c0.199-0.062,0.405-0.161,0.63-0.38C14.511,3.076,14.349,2.915,14.182,2.791z"/>
		<path style="fill:#030104;" d="M12.629,4.122c-0.167-0.119-0.344-0.192-0.526-0.221C11.919,3.87,11.73,3.88,11.53,3.938
			c-0.198,0.063-0.401,0.161-0.628,0.378c0.141,0.28,0.302,0.44,0.47,0.565C11.54,5,11.715,5.072,11.899,5.104
			c0.183,0.033,0.373,0.022,0.57-0.035c0.199-0.062,0.405-0.16,0.63-0.379C12.959,4.408,12.797,4.246,12.629,4.122z"/>
		<path style="fill:#030104;" d="M11.108,5.576c-0.168-0.118-0.344-0.191-0.526-0.222c-0.185-0.029-0.374-0.02-0.572,0.038
			C9.811,5.455,9.607,5.553,9.381,5.77C9.522,6.05,9.682,6.21,9.85,6.334c0.168,0.12,0.344,0.191,0.527,0.223
			c0.183,0.032,0.373,0.021,0.57-0.035c0.199-0.062,0.404-0.16,0.63-0.38C11.437,5.861,11.275,5.7,11.108,5.576z"/>
		<path style="fill:#030104;" d="M9.868,7.439C9.701,7.32,9.525,7.248,9.341,7.218C9.158,7.186,8.968,7.197,8.77,7.254
			C8.572,7.317,8.367,7.415,8.141,7.632c0.14,0.279,0.302,0.439,0.469,0.564C8.779,8.315,8.954,8.387,9.138,8.42
			c0.183,0.032,0.373,0.022,0.569-0.036c0.2-0.062,0.405-0.159,0.632-0.38C10.197,7.724,10.036,7.563,9.868,7.439z"/>
		<path style="fill:#030104;" d="M8.559,9.408C8.392,9.29,8.216,9.216,8.032,9.186C7.849,9.156,7.659,9.165,7.46,9.222
			C7.262,9.285,7.057,9.383,6.832,9.6c0.141,0.28,0.302,0.44,0.469,0.565c0.168,0.119,0.344,0.191,0.527,0.224
			c0.183,0.031,0.374,0.021,0.57-0.036c0.199-0.062,0.405-0.159,0.63-0.378C8.889,9.693,8.727,9.532,8.559,9.408z"/>
		<path style="fill:#030104;" d="M7.202,11.741c-0.167-0.12-0.345-0.191-0.527-0.222c-0.184-0.03-0.374-0.021-0.572,0.037
			c-0.199,0.063-0.404,0.16-0.629,0.378c0.141,0.28,0.302,0.44,0.469,0.563c0.169,0.12,0.344,0.192,0.527,0.225
			c0.184,0.031,0.373,0.021,0.571-0.035c0.2-0.063,0.404-0.16,0.629-0.381C7.531,12.026,7.37,11.864,7.202,11.741z"/>
		<path style="fill:#030104;" d="M7.873,4.685c0.154,0.14,0.343,0.267,0.646,0.352c0.172-0.265,0.229-0.484,0.252-0.691
			C8.789,4.141,8.762,3.952,8.694,3.78c-0.066-0.174-0.17-0.333-0.32-0.475C8.22,3.164,8.031,3.037,7.729,2.952
			c-0.17,0.264-0.227,0.483-0.25,0.69C7.462,3.848,7.49,4.035,7.555,4.21C7.619,4.384,7.724,4.543,7.873,4.685z"/>
		<path style="fill:#030104;" d="M6.363,6.68c0.154,0.14,0.343,0.268,0.646,0.351c0.172-0.263,0.23-0.484,0.251-0.69
			c0.019-0.205-0.008-0.394-0.075-0.567C7.12,5.6,7.014,5.441,6.865,5.301C6.711,5.16,6.522,5.032,6.221,4.948
			c-0.172,0.264-0.229,0.484-0.25,0.69C5.953,5.844,5.979,6.033,6.045,6.206C6.109,6.379,6.214,6.539,6.363,6.68z"/>
		<path style="fill:#030104;" d="M4.985,8.882c0.168,0.125,0.367,0.232,0.679,0.284c0.144-0.279,0.178-0.504,0.179-0.713
			C5.84,8.248,5.794,8.062,5.71,7.897C5.627,7.731,5.505,7.584,5.342,7.458C5.175,7.333,4.974,7.227,4.666,7.174
			C4.522,7.452,4.489,7.677,4.488,7.886c0.002,0.205,0.048,0.39,0.131,0.557C4.702,8.609,4.822,8.757,4.985,8.882z"/>
		<path style="fill:#030104;" d="M3.643,11.286c0.168,0.124,0.368,0.232,0.679,0.284c0.144-0.28,0.179-0.504,0.179-0.713
			c-0.002-0.205-0.048-0.391-0.132-0.557c-0.084-0.165-0.204-0.313-0.367-0.438C3.835,9.738,3.634,9.631,3.325,9.577
			c-0.143,0.279-0.177,0.506-0.178,0.712c0.003,0.207,0.049,0.392,0.131,0.558C3.359,11.014,3.48,11.161,3.643,11.286z"/>
		<path style="fill:#030104;" d="M9.527,2.936c0.134,0.161,0.303,0.313,0.592,0.437c0.206-0.237,0.294-0.447,0.345-0.649
			c0.046-0.201,0.045-0.391,0.002-0.572c-0.041-0.181-0.122-0.353-0.251-0.515c-0.134-0.16-0.302-0.312-0.59-0.437
			C9.42,1.436,9.334,1.647,9.283,1.85c-0.046,0.2-0.046,0.39-0.005,0.572C9.316,2.604,9.4,2.775,9.527,2.936z"/>
	</g>
</g>
<g>
</g>
<g>
</g>
<g>
</g>
<g>
</g>
<g>
</g>
<g>
</g>
<g>
</g>
<g>
</g>
<g>
</g>
<g>
</g>
<g>
</g>
<g>
</g>
<g>
</g>
<g>
</g>
<g>
</g>
</svg>
