<?xml version="1.0" encoding="iso-8859-1"?>
<!-- Generator: Adobe Illustrator 19.0.0, SVG Export Plug-In . SVG Version: 6.00 Build 0)  -->
<svg version="1.1" id="Layer_1" xmlns="http://www.w3.org/2000/svg" xmlns:xlink="http://www.w3.org/1999/xlink" x="0px" y="0px"
	 viewBox="0 0 460 460" style="enable-background:new 0 0 460 460;" xml:space="preserve">
<g>
	<path style="fill:#FF6E36;" d="M230,0C102.975,0,0,102.974,0,230c0,97.874,61.134,181.47,147.3,214.684L445.776,150.19
		C413.331,62.504,328.965,0,230,0z"/>
	<path style="fill:#FF1909;" d="M460,230c0-28.061-5.033-54.944-14.232-79.807l-83.35-83.35L81.792,379.157l65.513,65.513
		C172.969,454.563,200.848,460,230,460C357.025,460,460,357.025,460,230z"/>
	<path style="fill:#FFE1A0;" d="M371.23,88.03v159.5L220,272.78l10-214.75h111.23C357.73,58.03,371.23,71.53,371.23,88.03z"/>
	<path style="fill:#FFF0CF;" d="M230,58.03v214.75L88.77,247.53V88.03c0-16.5,13.5-30,30-30H230z"/>
	<path style="fill:#03242B;" d="M326.231,167.78c-8.271,0-15-6.729-15-15s6.729-15,15-15s15,6.729,15,15
		S334.502,167.78,326.231,167.78z"/>
	<path style="fill:#03242B;" d="M230,92.78c33.138,0,60,26.862,60,60s-26.862,60-60,60l-15.652-60L230,92.78z"/>
	<path style="fill:#064855;" d="M230,212.78c-33.138,0-60-26.862-60-60s26.862-60,60-60V212.78z"/>
	<path style="fill:#0C8FAA;" d="M230,112.78c22.092,0,40,17.908,40,40s-17.908,40-40,40l-10.435-40L230,112.78z"/>
	<path style="fill:#2DB8D4;" d="M230,192.78c-22.092,0-40-17.908-40-40s17.908-40,40-40V192.78z"/>
	<path style="fill:#FF1909;" d="M131.269,227.532l-12.5-22.5l12.5-22.5c12.407,0,22.5,10.094,22.5,22.5
		S143.676,227.532,131.269,227.532z"/>
	<path style="fill:#FF5347;" d="M108.769,205.032c0,12.406,10.093,22.5,22.5,22.5v-45
		C118.862,182.532,108.769,192.626,108.769,205.032z"/>
	<path style="fill:#0C8FAA;" d="M387.02,307.97v50c0,16.5-13.5,30-30,30H230l-10-90L387.02,307.97z"/>
	<path style="fill:#2DB8D4;" d="M230,297.97v90H102.98c-16.5,0-30-13.5-30-30v-50L230,297.97z"/>
	<polygon style="fill:#FFF0CF;" points="371.23,247.53 387.02,287.97 220,297.97 230,247.53 	"/>
	<polygon style="fill:#FFFFFF;" points="230,247.53 230,297.97 72.98,287.97 88.77,247.53 	"/>
	<polygon style="fill:#064855;" points="367.02,327.97 367.02,347.97 230,357.97 220,337.97 230,327.97 	"/>
	<polygon style="fill:#096C80;" points="230,327.97 230,357.97 92.98,347.97 92.98,327.97 	"/>
	<polygon style="fill:#03242B;" points="367.02,347.97 367.02,367.97 230,367.97 220,357.97 230,347.97 	"/>
	<rect x="92.98" y="347.97" style="fill:#064855;" width="137.02" height="20"/>
	<polygon style="fill:#FFE1A0;" points="387.02,287.97 387.02,307.97 230,307.97 220,297.97 230,287.97 	"/>
	<rect x="72.98" y="287.97" style="fill:#FFF0CF;" width="157.02" height="20"/>
	<polygon style="fill:#03242B;" points="351.23,78.03 351.23,118.03 331.23,118.03 319.23,98.029 331.23,78.03 	"/>
	<rect x="311.23" y="78.03" style="fill:#064855;" width="20" height="40"/>
	<path style="fill:#096C80;" d="M331.231,108.029c-5.514,0-10-4.486-10-10s4.486-10,10-10s10,4.486,10,10
		S336.745,108.029,331.231,108.029z"/>
</g>
<g>
</g>
<g>
</g>
<g>
</g>
<g>
</g>
<g>
</g>
<g>
</g>
<g>
</g>
<g>
</g>
<g>
</g>
<g>
</g>
<g>
</g>
<g>
</g>
<g>
</g>
<g>
</g>
<g>
</g>
</svg>
