<?xml version="1.0" encoding="iso-8859-1"?>
<!-- Generator: Adobe Illustrator 19.0.0, SVG Export Plug-In . SVG Version: 6.00 Build 0)  -->
<svg version="1.1" id="Layer_1" xmlns="http://www.w3.org/2000/svg" xmlns:xlink="http://www.w3.org/1999/xlink" x="0px" y="0px"
	 viewBox="0 0 511.999 511.999" style="enable-background:new 0 0 511.999 511.999;" xml:space="preserve">
<rect x="174.655" y="73.344" style="fill:#FED159;" width="164.804" height="123.612"/>
<rect x="10.426" y="142.965" style="fill:#82DCC7;" width="493.275" height="295.907"/>
<circle style="fill:#FFFFFF;" cx="139.956" cy="294.284" r="89.886"/>
<circle style="fill:#FCD589;" cx="139.956" cy="280.661" r="32.893"/>
<path style="fill:#F64B4A;" d="M186.612,360.219v10.9c-13.597,8.278-29.579,13.048-46.66,13.048s-33.051-4.77-46.648-13.035v-10.913
	c0-25.784,20.877-46.66,46.648-46.66C165.723,313.558,186.612,334.435,186.612,360.219z"/>
<path d="M502.635,133.493H182.96V82.601h146.078v29.965c0,5.172,4.192,9.365,9.365,9.365c5.173,0,9.365-4.193,9.365-9.365v-39.33
	c0-5.172-4.192-9.365-9.365-9.365H173.595c-5.173,0-9.365,4.193-9.365,9.365v60.257H9.365c-5.173,0-9.365,4.193-9.365,9.365v295.905
	c0,5.172,4.192,9.365,9.365,9.365h62.564c5.173,0,9.365-4.193,9.365-9.365s-4.192-9.365-9.365-9.365H18.729V152.222h474.542v277.176
	h-385.76c-5.173,0-9.365,4.193-9.365,9.365s4.192,9.365,9.365,9.365h395.123c5.173,0,9.365-4.193,9.365-9.365V142.857
	C512,137.686,507.807,133.493,502.635,133.493z"/>
<path d="M138.889,213.648c16.623,0,32.576,5.021,46.136,14.518c4.24,2.968,10.075,1.937,13.043-2.297
	c2.967-4.237,1.938-10.075-2.299-13.043c-16.725-11.714-36.393-17.906-56.882-17.906c-54.728,0-99.252,44.524-99.252,99.252
	c0,34.947,17.846,66.667,47.739,84.853c15.495,9.419,33.308,14.399,51.513,14.399c18.223,0,36.042-4.984,51.529-14.413
	c29.883-18.181,47.724-49.896,47.724-84.839c0-19.89-5.863-39.081-16.956-55.499c-2.896-4.285-8.717-5.411-13.003-2.517
	c-4.285,2.896-5.411,8.717-2.517,13.002c8.994,13.31,13.747,28.875,13.747,45.015c0,22.505-9.131,43.355-25.025,58.38
	c-2.349-17.341-12.655-32.182-27.117-40.717c8.519-7.736,13.877-18.895,13.877-31.281c0-23.302-18.958-42.258-42.258-42.258
	s-42.258,18.956-42.258,42.258c0,12.387,5.359,23.547,13.878,31.284c-14.463,8.537-24.769,23.379-27.116,40.721
	c-15.896-15.027-25.028-35.879-25.028-58.384C58.366,249.771,94.49,213.648,138.889,213.648z M138.889,257.023
	c12.974,0,23.529,10.554,23.529,23.529s-10.554,23.529-23.529,23.529s-23.529-10.556-23.529-23.529S125.916,257.023,138.889,257.023
	z M138.891,322.813c20.562,0,37.29,16.728,37.29,37.291v5.444c-11.453,5.995-24.24,9.146-37.292,9.146
	c-13.042,0-25.829-3.151-37.288-9.142v-5.448C101.6,339.542,118.329,322.813,138.891,322.813z"/>
<path d="M446.492,213.65c5.173,0,9.365-4.193,9.365-9.365s-4.192-9.365-9.365-9.365h-39.329c-5.173,0-9.365,4.193-9.365,9.365
	s4.192,9.365,9.365,9.365H446.492z"/>
<path d="M304.158,213.65h71.79c5.173,0,9.365-4.193,9.365-9.365s-4.192-9.365-9.365-9.365h-71.79c-5.173,0-9.365,4.193-9.365,9.365
	S298.985,213.65,304.158,213.65z"/>
<path d="M446.492,279.245h-83.027c-5.173,0-9.365,4.193-9.365,9.365s4.192,9.365,9.365,9.365h83.027
	c5.173,0,9.365-4.193,9.365-9.365S451.664,279.245,446.492,279.245z"/>
<path d="M304.158,297.974h28.091c5.173,0,9.365-4.193,9.365-9.365s-4.192-9.365-9.365-9.365h-28.091
	c-5.173,0-9.365,4.193-9.365,9.365S298.985,297.974,304.158,297.974z"/>
<path d="M304.158,393.422h142.334c5.173,0,9.365-4.193,9.365-9.365c0-5.172-4.192-9.365-9.365-9.365H304.158
	c-5.173,0-9.365,4.193-9.365,9.365C294.794,389.229,298.985,393.422,304.158,393.422z"/>
<path d="M304.158,255.811h142.334c5.173,0,9.365-4.193,9.365-9.365s-4.192-9.365-9.365-9.365H304.158
	c-5.173,0-9.365,4.193-9.365,9.365S298.985,255.811,304.158,255.811z"/>
<g>
</g>
<g>
</g>
<g>
</g>
<g>
</g>
<g>
</g>
<g>
</g>
<g>
</g>
<g>
</g>
<g>
</g>
<g>
</g>
<g>
</g>
<g>
</g>
<g>
</g>
<g>
</g>
<g>
</g>
</svg>
