<?xml version="1.0" encoding="iso-8859-1"?>
<!-- Generator: Adobe Illustrator 19.0.0, SVG Export Plug-In . SVG Version: 6.00 Build 0)  -->
<svg version="1.1" id="Layer_1" xmlns="http://www.w3.org/2000/svg" xmlns:xlink="http://www.w3.org/1999/xlink" x="0px" y="0px"
	 viewBox="0 0 512 512" style="enable-background:new 0 0 512 512;" xml:space="preserve">
<g>
	<g>
		<path style="fill:#930B1F;" d="M379.586,44.985l-35.31,52.966h8.828v35.31h35.31v132.326c2.807-1.156,5.597-2.348,8.289-3.725
			c24.135-12.332,42.161-34.039,52.224-59.207L512,44.985H379.586z"/>
		<path style="fill:#930B1F;" d="M123.586,133.261h35.31v-35.31h8.828l-35.31-52.966H0l63.073,157.67
			c10.063,25.167,28.089,46.874,52.224,59.207c2.692,1.377,5.482,2.569,8.289,3.725V133.261z"/>
	</g>
	<g>
		<path style="fill:#F8D832;" d="M388.414,283.33V133.261h-35.31v-35.31H158.897v35.31h-35.31V283.33H388.414z"/>
		<path style="fill:#F8D832;" d="M134.801,371.606l121.203,95.409l121.194-95.409H134.801z"/>
	</g>
	<path style="fill:#354577;" d="M70.621,371.606h370.759V283.33H70.621V371.606z"/>
	<g>
		<path style="fill:#172644;" d="M70.621,371.606v-52.965H0l35.31,44.138L0,406.916h97.103v-35.31H70.621z"/>
		<path style="fill:#172644;" d="M512,318.641h-70.621v52.965h-26.483v35.31H512l-35.31-44.138L512,318.641z"/>
	</g>
	<g>
		<path style="fill:#C4A316;" d="M192.26,371.606l63.744,52.966l63.735-52.966H192.26z"/>
		<path style="fill:#C4A316;" d="M353.103,283.33V168.572h-35.31v-35.31H194.207v35.31h-35.31V283.33H353.103z"/>
	</g>
	<g>
		<path style="fill:#6B0F21;" d="M61.793,71.468H14.124c-1.165,0-2.251,0.256-3.266,0.662l6.797,16.993h44.138
			c4.882,0,8.828-3.955,8.828-8.828C70.621,75.423,66.675,71.468,61.793,71.468"/>
		<path style="fill:#6B0F21;" d="M70.621,106.778H28.248c-1.156,0-2.251,0.256-3.266,0.662l6.797,16.993h38.841
			c4.882,0,8.828-3.955,8.828-8.828S75.502,106.778,70.621,106.778"/>
		<path style="fill:#6B0F21;" d="M88.276,142.089H42.372c-1.156,0-2.251,0.256-3.266,0.662l6.797,16.993h42.372
			c4.882,0,8.828-3.955,8.828-8.828C97.103,146.044,93.158,142.089,88.276,142.089"/>
		<path style="fill:#6B0F21;" d="M497.879,71.468H450.21c-4.882,0-8.828,3.955-8.828,8.828c0,4.873,3.946,8.828,8.828,8.828h44.138
			l6.797-16.993C500.13,71.724,499.036,71.468,497.879,71.468"/>
		<path style="fill:#6B0F21;" d="M487.019,107.438c-1.015-0.406-2.11-0.662-3.266-0.662H441.38c-4.882,0-8.828,3.955-8.828,8.828
			c0,4.882,3.946,8.828,8.828,8.828h38.841L487.019,107.438z"/>
		<path style="fill:#6B0F21;" d="M466.097,159.744l6.797-16.993c-1.015-0.406-2.11-0.662-3.266-0.662h-45.903
			c-4.882,0-8.828,3.955-8.828,8.828c0,4.873,3.946,8.828,8.828,8.828H466.097z"/>
	</g>
</g>
<g>
</g>
<g>
</g>
<g>
</g>
<g>
</g>
<g>
</g>
<g>
</g>
<g>
</g>
<g>
</g>
<g>
</g>
<g>
</g>
<g>
</g>
<g>
</g>
<g>
</g>
<g>
</g>
<g>
</g>
</svg>
