<svg width="24px" height="24px" viewBox="0 0 24 24" fill="none" xmlns="http://www.w3.org/2000/svg">
<path d="M10.5 12C10.5 11.5341 10.5 11.3011 10.5761 11.1173C10.6776 10.8723 10.8723 10.6776 11.1173 10.5761C11.3011 10.5 11.5341 10.5 12 10.5C12.4659 10.5 12.6989 10.5 12.8827 10.5761C13.1277 10.6776 13.3224 10.8723 13.4239 11.1173C13.5 11.3011 13.5 11.5341 13.5 12C13.5 12.4659 13.5 12.6989 13.4239 12.8827C13.3224 13.1277 13.1277 13.3224 12.8827 13.4239C12.6989 13.5 12.4659 13.5 12 13.5C11.5341 13.5 11.3011 13.5 11.1173 13.4239C10.8723 13.3224 10.6776 13.1277 10.5761 12.8827C10.5 12.6989 10.5 12.4659 10.5 12Z" fill="black"/>
<path d="M15.5 12C15.5 11.5341 15.5 11.3011 15.5761 11.1173C15.6776 10.8723 15.8723 10.6776 16.1173 10.5761C16.3011 10.5 16.5341 10.5 17 10.5C17.4659 10.5 17.6989 10.5 17.8827 10.5761C18.1277 10.6776 18.3224 10.8723 18.4239 11.1173C18.5 11.3011 18.5 11.5341 18.5 12C18.5 12.4659 18.5 12.6989 18.4239 12.8827C18.3224 13.1277 18.1277 13.3224 17.8827 13.4239C17.6989 13.5 17.4659 13.5 17 13.5C16.5341 13.5 16.3011 13.5 16.1173 13.4239C15.8723 13.3224 15.6776 13.1277 15.5761 12.8827C15.5 12.6989 15.5 12.4659 15.5 12Z" fill="black"/>
<path d="M5.5 12C5.5 11.5341 5.5 11.3011 5.57612 11.1173C5.67761 10.8723 5.87229 10.6776 6.11732 10.5761C6.30109 10.5 6.53406 10.5 7 10.5C7.46594 10.5 7.69891 10.5 7.88268 10.5761C8.12771 10.6776 8.32239 10.8723 8.42388 11.1173C8.5 11.3011 8.5 11.5341 8.5 12C8.5 12.4659 8.5 12.6989 8.42388 12.8827C8.32239 13.1277 8.12771 13.3224 7.88268 13.4239C7.69891 13.5 7.46594 13.5 7 13.5C6.53406 13.5 6.30109 13.5 6.11732 13.4239C5.87229 13.3224 5.67761 13.1277 5.57612 12.8827C5.5 12.6989 5.5 12.4659 5.5 12Z" fill="black"/>
</svg>
