<?xml version="1.0" encoding="iso-8859-1"?>
<!-- Generator: Adobe Illustrator 17.1.0, SVG Export Plug-In . SVG Version: 6.00 Build 0)  -->
<!DOCTYPE svg PUBLIC "-//W3C//DTD SVG 1.1//EN" "http://www.w3.org/Graphics/SVG/1.1/DTD/svg11.dtd">
<svg version="1.1" id="Capa_1" xmlns="http://www.w3.org/2000/svg" xmlns:xlink="http://www.w3.org/1999/xlink" x="0px" y="0px"
	 viewBox="0 0 470 470" style="enable-background:new 0 0 470 470;" xml:space="preserve">
<path d="M401.17,68.83C356.785,24.444,297.771,0,235,0S113.215,24.444,68.83,68.83C24.444,113.215,0,172.229,0,235
	s24.444,121.785,68.83,166.17C113.215,445.556,172.229,470,235,470s121.785-24.444,166.17-68.83
	C445.556,356.785,470,297.771,470,235S445.556,113.215,401.17,68.83z M235,455c-121.309,0-220-98.691-220-220S113.691,15,235,15
	s220,98.691,220,220S356.309,455,235,455z"/>
<path d="M235,40.5c4.411,0,8-3.589,8-8s-3.589-8-8-8s-8,3.589-8,8S230.589,40.5,235,40.5z"/>
<path d="M192.897,44.925c0.56,0,1.122-0.06,1.658-0.174c2.093-0.443,3.887-1.675,5.052-3.469s1.561-3.935,1.117-6.014
	c-0.777-3.676-4.069-6.344-7.826-6.344c-0.56,0-1.122,0.06-1.669,0.176c-4.306,0.918-7.068,5.17-6.156,9.494
	C185.856,42.263,189.147,44.925,192.897,44.925z"/>
<path d="M152.636,58.007c1.127,0,2.221-0.232,3.257-0.693c4.026-1.795,5.844-6.531,4.052-10.559
	c-1.284-2.884-4.153-4.748-7.31-4.748c-1.129,0-2.225,0.233-3.251,0.691c-4.03,1.793-5.851,6.531-4.058,10.561
	C146.61,56.144,149.479,58.007,152.636,58.007z"/>
<path d="M115.974,79.174c1.697,0,3.321-0.526,4.71-1.534c3.565-2.598,4.353-7.612,1.766-11.162c-1.5-2.069-3.921-3.304-6.477-3.304
	c-1.7,0-3.326,0.528-4.695,1.523c-1.731,1.255-2.87,3.109-3.205,5.221c-0.336,2.112,0.171,4.228,1.43,5.96
	C111.003,77.942,113.422,79.174,115.974,79.174z"/>
<path d="M79.154,105.441c1.472,1.329,3.375,2.06,5.359,2.06c2.268,0,4.438-0.968,5.946-2.648c2.947-3.275,2.684-8.34-0.594-11.298
	c-1.472-1.324-3.372-2.054-5.352-2.054c-2.264,0-4.432,0.965-5.946,2.648c-1.429,1.588-2.155,3.638-2.042,5.771
	C76.636,102.055,77.573,104.018,79.154,105.441z"/>
<path d="M55.629,140.678c1.215,0.702,2.598,1.072,4,1.072c2.849,0,5.503-1.532,6.928-3.999c1.069-1.852,1.353-4.008,0.799-6.073
	c-0.553-2.063-1.876-3.788-3.726-4.856c-1.215-0.702-2.598-1.072-4-1.072c-2.849,0-5.503,1.532-6.928,3.999
	c-1.069,1.852-1.353,4.008-0.799,6.073C52.456,137.885,53.779,139.609,55.629,140.678z"/>
<path d="M44.885,164.816c-0.801-0.26-1.633-0.393-2.475-0.393c-3.475,0-6.532,2.221-7.607,5.525
	c-0.661,2.034-0.491,4.203,0.48,6.108c0.972,1.905,2.627,3.317,4.652,3.974c0.801,0.26,1.634,0.393,2.475,0.393
	c3.476,0,6.533-2.221,7.612-5.538c0.656-2.03,0.484-4.194-0.484-6.095C48.567,166.884,46.91,165.471,44.885,164.816z"/>
<path d="M32.774,221.789c0.26,0.027,0.574,0.044,0.835,0.044c4.106,0,7.527-3.08,7.956-7.165c0.46-4.387-2.734-8.33-7.109-8.79
	c-0.264-0.028-0.583-0.045-0.848-0.045c-4.1,0-7.519,3.075-7.955,7.165c-0.223,2.125,0.395,4.21,1.741,5.871
	C28.739,220.529,30.65,221.566,32.774,221.789z"/>
<path d="M41.565,255.332c-0.429-4.084-3.849-7.165-7.956-7.165c-0.261,0-0.575,0.017-0.835,0.044
	c-2.125,0.223-4.036,1.26-5.381,2.92c-1.346,1.661-1.964,3.746-1.739,5.883c0.435,4.078,3.854,7.153,7.954,7.153
	c0.262,0,0.577-0.017,0.837-0.044C38.832,263.662,42.026,259.719,41.565,255.332z"/>
<path d="M42.411,289.576c-0.841,0-1.674,0.132-2.466,0.39c-2.034,0.659-3.689,2.071-4.661,3.977
	c-0.971,1.905-1.142,4.075-0.48,6.108c1.075,3.305,4.132,5.526,7.607,5.526c0.841,0,1.674-0.132,2.463-0.389
	c2.037-0.659,3.693-2.072,4.665-3.979c0.969-1.901,1.141-4.065,0.48-6.107C48.944,291.796,45.887,289.576,42.411,289.576z"/>
<path d="M59.629,328.25c-1.402,0-2.786,0.371-4,1.072c-1.85,1.068-3.173,2.793-3.726,4.856c-0.554,2.065-0.27,4.221,0.799,6.073
	c1.425,2.467,4.08,3.999,6.928,3.999c1.402,0,2.786-0.371,4-1.072c1.85-1.068,3.173-2.793,3.726-4.856
	c0.554-2.065,0.27-4.221-0.799-6.073C65.133,329.782,62.478,328.25,59.629,328.25z"/>
<path d="M84.513,362.499c-1.983,0-3.887,0.731-5.352,2.054c-1.588,1.43-2.525,3.392-2.637,5.527
	c-0.112,2.134,0.613,4.183,2.042,5.771c1.515,1.683,3.682,2.648,5.946,2.648c1.98,0,3.88-0.729,5.359-2.06
	c3.271-2.952,3.535-8.017,0.593-11.285C88.951,363.467,86.781,362.499,84.513,362.499z"/>
<path d="M120.67,392.349c-1.375-0.997-2.999-1.523-4.696-1.523c-2.552,0-4.971,1.232-6.473,3.298
	c-1.257,1.73-1.764,3.846-1.428,5.958c0.335,2.112,1.474,3.966,3.199,5.217c1.376,1,3.001,1.527,4.702,1.527
	c2.556,0,4.977-1.235,6.466-3.289C125.037,399.972,124.25,394.958,120.67,392.349z"/>
<path d="M155.888,412.684c-1.03-0.458-2.125-0.691-3.251-0.691c-3.157,0-6.026,1.864-7.31,4.749
	c-1.793,4.03,0.027,8.768,4.053,10.559c1.032,0.46,2.127,0.693,3.256,0.693c3.157,0,6.026-1.864,7.31-4.749
	C161.737,419.217,159.919,414.481,155.888,412.684z"/>
<path d="M194.567,425.251c-0.548-0.117-1.11-0.176-1.67-0.176c-3.75,0-7.041,2.663-7.827,6.347
	c-0.909,4.308,1.854,8.559,6.158,9.478c0.548,0.117,1.11,0.176,1.67,0.176c3.757,0,7.048-2.668,7.823-6.331
	c0.446-2.092,0.05-4.233-1.115-6.027S196.647,425.691,194.567,425.251z"/>
<path d="M235,429.5c-4.411,0-8,3.589-8,8s3.589,8,8,8s8-3.589,8-8S239.411,429.5,235,429.5z"/>
<path d="M277.103,425.075c-0.56,0-1.122,0.06-1.658,0.174c-2.093,0.443-3.887,1.675-5.052,3.469s-1.561,3.935-1.117,6.014
	c0.777,3.676,4.069,6.344,7.826,6.344c0.56,0,1.122-0.06,1.669-0.176c4.306-0.918,7.068-5.17,6.156-9.494
	C284.144,427.737,280.853,425.075,277.103,425.075z"/>
<path d="M317.364,411.993c-1.127,0-2.221,0.232-3.257,0.693c-4.026,1.795-5.844,6.531-4.052,10.559
	c1.284,2.884,4.153,4.748,7.31,4.748c1.129,0,2.225-0.233,3.251-0.691c4.03-1.793,5.851-6.531,4.058-10.561
	C323.39,413.856,320.521,411.993,317.364,411.993z"/>
<path d="M354.026,390.826c-1.697,0-3.321,0.526-4.71,1.534c-3.565,2.598-4.353,7.612-1.766,11.162
	c1.5,2.069,3.921,3.304,6.477,3.304c1.7,0,3.326-0.528,4.695-1.523c1.731-1.255,2.87-3.109,3.205-5.221
	c0.336-2.112-0.171-4.228-1.43-5.96C358.997,392.058,356.578,390.826,354.026,390.826z"/>
<path d="M390.846,364.559c-1.472-1.329-3.375-2.06-5.359-2.06c-2.268,0-4.438,0.968-5.946,2.648
	c-2.947,3.275-2.684,8.34,0.594,11.298c1.472,1.324,3.372,2.054,5.352,2.054c2.264,0,4.432-0.965,5.946-2.648
	c1.429-1.588,2.155-3.638,2.042-5.771C393.364,367.945,392.427,365.982,390.846,364.559z"/>
<path d="M414.371,329.322c-1.215-0.702-2.598-1.072-4-1.072c-2.849,0-5.503,1.532-6.928,3.999c-1.069,1.852-1.353,4.008-0.799,6.073
	c0.553,2.063,1.876,3.788,3.726,4.856c1.215,0.702,2.598,1.072,4,1.072c2.849,0,5.503-1.532,6.928-3.999
	c1.069-1.852,1.353-4.008,0.799-6.073C417.544,332.115,416.221,330.391,414.371,329.322z"/>
<path d="M430.064,289.968c-0.801-0.26-1.634-0.393-2.475-0.393c-3.476,0-6.533,2.221-7.612,5.538
	c-0.656,2.03-0.484,4.194,0.484,6.095c0.972,1.907,2.628,3.32,4.653,3.975c0.801,0.26,1.633,0.393,2.475,0.393
	c3.475,0,6.532-2.221,7.607-5.525c0.661-2.034,0.491-4.203-0.48-6.108C433.745,292.037,432.089,290.625,430.064,289.968z"/>
<path d="M442.606,251.131c-1.345-1.66-3.256-2.697-5.381-2.92c-0.26-0.027-0.574-0.044-0.835-0.044c-4.106,0-7.527,3.08-7.956,7.165
	c-0.46,4.387,2.734,8.33,7.109,8.79c0.264,0.028,0.583,0.045,0.848,0.045c4.1,0,7.519-3.075,7.955-7.165
	C444.57,254.876,443.952,252.792,442.606,251.131z"/>
<path d="M428.435,214.668c0.429,4.084,3.849,7.165,7.956,7.165c0.261,0,0.575-0.017,0.835-0.044c2.125-0.223,4.036-1.26,5.381-2.92
	c1.346-1.661,1.964-3.746,1.739-5.883c-0.435-4.078-3.854-7.153-7.954-7.153c-0.262,0-0.577,0.017-0.837,0.044
	C431.168,206.338,427.974,210.281,428.435,214.668z"/>
<path d="M427.589,180.424c0.841,0,1.674-0.132,2.466-0.39c2.034-0.659,3.689-2.071,4.661-3.977c0.971-1.905,1.142-4.075,0.48-6.108
	c-1.075-3.305-4.132-5.526-7.607-5.526c-0.841,0-1.674,0.132-2.463,0.389c-2.037,0.659-3.693,2.072-4.665,3.979
	c-0.969,1.901-1.141,4.065-0.48,6.107C421.056,178.204,424.113,180.424,427.589,180.424z"/>
<path d="M410.37,125.75c-1.402,0-2.786,0.371-4,1.072c-1.85,1.068-3.173,2.793-3.726,4.856c-0.554,2.065-0.27,4.221,0.799,6.073
	c1.425,2.467,4.08,3.999,6.928,3.999c1.402,0,2.786-0.371,4-1.072c1.85-1.068,3.173-2.793,3.726-4.856
	c0.554-2.065,0.27-4.221-0.799-6.073C415.873,127.282,413.218,125.75,410.37,125.75z"/>
<path d="M385.487,107.501c1.983,0,3.887-0.731,5.352-2.054c1.588-1.43,2.525-3.392,2.637-5.527c0.112-2.134-0.613-4.183-2.042-5.771
	c-1.515-1.683-3.682-2.648-5.946-2.648c-1.98,0-3.88,0.729-5.359,2.06c-3.271,2.952-3.535,8.017-0.593,11.285
	C381.049,106.533,383.219,107.501,385.487,107.501z"/>
<path d="M349.33,77.651c1.375,0.997,2.999,1.523,4.696,1.523c2.552,0,4.971-1.232,6.473-3.298c1.257-1.73,1.764-3.846,1.428-5.958
	c-0.335-2.112-1.474-3.966-3.199-5.217c-1.376-1-3.001-1.527-4.702-1.527c-2.556,0-4.977,1.235-6.466,3.289
	C344.963,70.028,345.75,75.042,349.33,77.651z"/>
<path d="M314.112,57.316c1.03,0.458,2.125,0.691,3.251,0.691c3.157,0,6.026-1.864,7.31-4.749c1.793-4.03-0.027-8.768-4.053-10.559
	c-1.032-0.46-2.127-0.693-3.256-0.693c-3.157,0-6.026,1.864-7.31,4.749C308.263,50.783,310.081,55.519,314.112,57.316z"/>
<path d="M275.433,44.749c0.548,0.117,1.11,0.176,1.67,0.176c3.75,0,7.041-2.663,7.827-6.347c0.909-4.308-1.854-8.559-6.158-9.478
	c-0.548-0.117-1.11-0.176-1.67-0.176c-3.757,0-7.048,2.668-7.823,6.331c-0.446,2.092-0.05,4.233,1.115,6.027
	S273.353,44.309,275.433,44.749z"/>
<path d="M389.881,259.789l19.486-19.486c2.929-2.929,2.929-7.678,0-10.606l-19.486-19.486
	c-3.848-24.182-13.427-47.302-27.835-67.181v-27.576c0-4.142-3.358-7.5-7.5-7.5H326.97c-19.879-14.408-42.999-23.987-67.18-27.835
	l-19.486-19.486c-2.929-2.929-7.678-2.929-10.606,0L210.21,80.119c-24.183,3.848-47.302,13.427-67.18,27.835h-27.576
	c-4.142,0-7.5,3.358-7.5,7.5v27.576c-14.408,19.878-23.987,42.997-27.835,67.18l-19.486,19.486c-2.929,2.929-2.929,7.678,0,10.606
	l19.486,19.486c3.849,24.187,13.431,47.311,27.843,67.191c-0.005,0.681-0.006,1.426-0.006,2.25l-0.002,25.315
	c0,4.142,3.358,7.5,7.5,7.5h27.576c19.879,14.408,42.998,23.987,67.18,27.835l19.486,19.486c1.464,1.464,3.384,2.197,5.303,2.197
	s3.839-0.732,5.303-2.197l19.486-19.486c24.182-3.848,47.302-13.427,67.18-27.835h27.576c4.142,0,7.5-3.358,7.5-7.5V326.97
	C376.454,307.091,386.033,283.971,389.881,259.789z M342.754,302.147c10.75-17.177,17.141-36.488,18.797-56.626l13.298,13.298
	c-3.265,19.266-10.552,37.759-21.312,54.112L342.754,302.147z M353.538,157.069c10.76,16.353,18.048,34.845,21.312,54.112
	l-13.298,13.298c-1.657-20.138-8.047-39.449-18.797-56.626L353.538,157.069z M382.851,245.607L372.244,235l10.607-10.607
	L393.457,235L382.851,245.607z M211.181,95.15l13.298,13.298c-20.138,1.657-39.449,8.047-56.627,18.797l-10.784-10.784
	C173.421,105.704,191.914,98.415,211.181,95.15z M258.819,95.15c19.267,3.264,37.759,10.552,54.112,21.312l-10.784,10.784
	c-17.177-10.75-36.488-17.141-56.627-18.797L258.819,95.15z M235,76.543l10.607,10.606L235,97.756l-10.607-10.607L235,76.543z
	 M116.463,312.931c-10.759-16.352-18.047-34.845-21.312-54.113l13.298-13.298c1.657,20.138,8.047,39.449,18.797,56.626
	L116.463,312.931z M108.449,224.479l-13.298-13.298c3.265-19.267,10.553-37.76,21.312-54.112c3.47,3.47,7.687,7.687,10.784,10.784
	C116.496,185.03,110.106,204.341,108.449,224.479z M87.149,224.393L97.756,235l-10.607,10.607L76.543,235L87.149,224.393z
	 M258.819,374.85l-13.298-13.298c20.138-1.657,39.449-8.047,56.627-18.797l10.784,10.784
	C296.579,364.297,278.086,371.585,258.819,374.85z M211.181,374.85c-19.267-3.265-37.759-10.553-54.112-21.312l10.784-10.784
	c17.177,10.75,36.488,17.141,56.627,18.797L211.181,374.85z M235,393.457l-10.607-10.606L235,372.244l10.607,10.607L235,393.457z
	 M347.046,347.046h-19.394l-19.227-19.226c-2.568-2.568-6.608-2.926-9.589-0.852C280.018,340.073,257.944,347,235,347
	s-45.018-6.927-63.836-20.031c-2.981-2.076-7.021-1.717-9.589,0.852l-19.227,19.226h-19.394c0-7.065,0.001-15.109,0.002-19.395
	l19.224-19.225c2.568-2.569,2.927-6.608,0.851-9.589c-11.67-16.758-18.425-36.1-19.768-56.336h48.661c4.142,0,7.5-3.358,7.5-7.5
	s-3.358-7.5-7.5-7.5h-48.661c1.343-20.237,8.099-39.579,19.769-56.336c2.076-2.981,1.717-7.021-0.851-9.589
	c-11.066-11.066-16.504-16.505-19.227-19.216v-19.404h19.394l19.227,19.226c2.569,2.569,6.609,2.927,9.589,0.852
	C189.982,129.927,212.056,123,235,123s45.018,6.927,63.836,20.031c2.982,2.077,7.021,1.718,9.589-0.852l19.227-19.226h19.394v19.394
	l-19.226,19.227c-2.569,2.568-2.927,6.608-0.852,9.589c11.67,16.758,18.426,36.1,19.769,56.336h-48.418c-4.142,0-7.5,3.358-7.5,7.5
	s3.358,7.5,7.5,7.5h48.418c-1.343,20.237-8.099,39.579-19.768,56.336c-2.076,2.981-1.717,7.021,0.852,9.589l19.226,19.227V347.046z"
	/>
<path d="M298.319,253.018c-4.142,0-7.5,3.358-7.5,7.5v30.301h-22.801v-30.801c0-1.989-0.79-3.897-2.197-5.303l-10.508-10.508
	c1.278-2.809,1.996-5.924,1.996-9.206c0-3.549-0.837-6.904-2.317-9.885l8.132-8.132h34.952c0.041,0,0.081-0.005,0.121-0.006
	c0.041,0.001,0.08,0.006,0.121,0.006c4.142,0,7.5-3.358,7.5-7.5v-37.801c0-4.142-3.358-7.5-7.5-7.5H171.681
	c-4.142,0-7.5,3.358-7.5,7.5v37.801c0,4.142,3.358,7.5,7.5,7.5s7.5-3.358,7.5-7.5v-30.301h22.801v30.801
	c0,1.989,0.79,3.897,2.197,5.303l10.508,10.508c-1.278,2.809-1.996,5.924-1.996,9.206c0,3.549,0.837,6.904,2.317,9.885l-8.132,8.132
	h-34.952c-0.041,0-0.081,0.005-0.121,0.006c-0.041-0.001-0.08-0.006-0.121-0.006c-4.142,0-7.5,3.358-7.5,7.5v37.801
	c0,4.142,3.358,7.5,7.5,7.5h126.638c4.142,0,7.5-3.358,7.5-7.5v-37.801C305.819,256.375,302.461,253.018,298.319,253.018z
	 M227.691,235c0-4.03,3.279-7.309,7.309-7.309s7.309,3.279,7.309,7.309s-3.279,7.309-7.309,7.309S227.691,239.03,227.691,235z
	 M290.819,179.181v22.801h-30.801c-1.989,0-3.897,0.79-5.303,2.197l-10.508,10.508c-2.809-1.278-5.924-1.996-9.206-1.996
	c-3.549,0-6.904,0.837-9.885,2.317l-8.132-8.132v-27.695H290.819z M179.181,268.018h30.801c1.989,0,3.897-0.79,5.303-2.197
	l10.508-10.508c2.809,1.278,5.924,1.996,9.206,1.996c3.549,0,6.904-0.837,9.885-2.317l8.132,8.132v27.695h-73.836V268.018z"/>
<g>
</g>
<g>
</g>
<g>
</g>
<g>
</g>
<g>
</g>
<g>
</g>
<g>
</g>
<g>
</g>
<g>
</g>
<g>
</g>
<g>
</g>
<g>
</g>
<g>
</g>
<g>
</g>
<g>
</g>
</svg>
