<?xml version="1.0" ?><svg width="512px" height="512px" viewBox="0 0 512 512" xmlns="http://www.w3.org/2000/svg"><title/><g id="reuse_recycle"><path d="M462.08,52.65H420.34a19.21,19.21,0,0,0-19.16,19.2V188.52H328.91q-4.86-3.28-10-6.13V71.85a19.21,19.21,0,0,0-19.16-19.2H258a19.21,19.21,0,0,0-19.16,19.2v95.47a129,129,0,0,0-27.05,6.59,69.15,69.15,0,0,0-13-31.94l-43-58.36v-22h13.62a7,7,0,0,0,7-7v-27A19.35,19.35,0,0,0,157.11,8.3H89.32A19.35,19.35,0,0,0,70,27.63v27a7,7,0,0,0,7,7H89.37V85.71l-42.29,56a70.14,70.14,0,0,0-14.09,42V462.93a39.93,39.93,0,0,0,39.88,39.88h99.69a39.93,39.93,0,0,0,39.88-39.88V419.54a129.6,129.6,0,0,0,26.4,6.36v44.6a32.3,32.3,0,0,0,32.21,32.31H449a32.29,32.29,0,0,0,32.2-32.31V71.85A19.2,19.2,0,0,0,462.08,52.65Zm-61,149.87a15.79,15.79,0,0,1-15.63,14h-26.6a130.36,130.36,0,0,0-12.61-14Zm-30.64,94.09A114.42,114.42,0,1,1,256,182.19,114.55,114.55,0,0,1,370.42,296.61ZM252.84,91.6h30a7,7,0,0,0,0-14h-30V71.85a5.19,5.19,0,0,1,5.16-5.2h41.74a5.19,5.19,0,0,1,5.16,5.2V175.71a129.61,129.61,0,0,0-48.9-9.52c-1.06,0-2.11,0-3.16,0ZM84,47.65v-20a5.33,5.33,0,0,1,5.33-5.33h67.79a5.33,5.33,0,0,1,5.33,5.33v20H84Zm57.83,14V75.1H103.37V61.65Zm56.62,401.28a25.91,25.91,0,0,1-25.88,25.88h-5.07l9.66-16.14a7,7,0,0,0-12-7.19l-14,23.33h-19.6V469.07a7,7,0,0,0-14,0v19.74H98L84,465.48a7,7,0,1,0-12,7.19l9.65,16.14h-8.8A25.91,25.91,0,0,1,47,462.93V345.75h62.55a7,7,0,1,0,0-14H47V278.12h62.55a7,7,0,1,0,0-14H47V183.76a56.11,56.11,0,0,1,11.26-33.6L104.36,89.1h38.11l45.09,61.18a55.37,55.37,0,0,1,10.75,29.38,130.38,130.38,0,0,0,.13,234ZM449,488.81h-178a18.26,18.26,0,0,1-18.15-17.13H467.17A18.25,18.25,0,0,1,449,488.81Zm18.2-31.13H252.84V427c1,0,2.1,0,3.16,0,71.91,0,130.42-58.51,130.42-130.42a129.63,129.63,0,0,0-18.05-66.13h17.06a29.82,29.82,0,0,0,29.75-29.83V91.6h30a7,7,0,0,0,0-14h-30V71.85a5.19,5.19,0,0,1,5.16-5.2h41.74a5.19,5.19,0,0,1,5.15,5.2Z"/><path d="M318.92,327.66a7,7,0,0,0-9.44,3,58.63,58.63,0,0,1-58,31.56,59.24,59.24,0,0,1-50.38-40.55l8.76-1.05a7,7,0,0,0,3.36-12.55l-17.59-13.18A7,7,0,0,0,186,296l-14,17a7,7,0,0,0,5.41,11.45,7.86,7.86,0,0,0,.83,0l8.71-1.05a73.27,73.27,0,0,0,63.12,52.79c2.41.24,4.81.35,7.19.35a72.53,72.53,0,0,0,64.62-39.4A7,7,0,0,0,318.92,327.66Z"/><path d="M191.4,251.82a7,7,0,0,0,12.06,7.11A58.91,58.91,0,0,1,310.91,272.8l-9.46,1.14a7,7,0,0,0-3.36,12.55L317.39,301a7,7,0,0,0,9.6-1.15l15.34-18.62a7,7,0,0,0-6.24-11.4l-11.15,1.34a72.9,72.9,0,0,0-133.54-19.3Z"/></g></svg>