<svg width="515" height="525" viewBox="0 0 515 525" fill="none" xmlns="http://www.w3.org/2000/svg">
<path d="M362.973 47.884V7.86099H459.027V47.884" fill="#FBB03B"/>
<path d="M435.011 7.86099H386.984V47.888H435.011V7.86099Z" fill="#F15A24"/>
<path d="M451.023 47.884H370.98V79.902H451.023V47.884Z" fill="#ED1E79"/>
<path d="M402.998 47.884H370.98V79.902H402.998V47.884Z" fill="#9E005D"/>
<path d="M507.053 175.955C507.053 121.611 461.922 77.807 407.095 79.979C356.694 81.976 315.516 124.421 314.952 174.857C314.65 201.825 325.474 226.251 343.112 243.862C350.589 251.328 345.775 264.004 335.208 264.004H332.143C322.644 264.004 314.944 271.704 314.944 281.203V504.138H507.053V281.203C507.053 271.704 499.353 264.004 489.854 264.004H486.757C476.506 264.004 471.104 251.529 478.408 244.336C496.088 226.928 507.053 202.73 507.053 175.955Z" fill="#9E005D"/>
<path d="M489.854 265.685H486.757C476.506 265.685 471.104 252.369 478.409 245.175C496.088 227.767 507.053 203.15 507.053 176.374C507.053 122.03 461.922 78.015 407.095 80.189C401.599 80.406 396.24 81.083 391.005 82.22C434.419 91.449 467.031 129.841 467.031 176.007C467.031 202.781 456.066 227.794 438.387 245.201C431.082 252.394 436.484 265.685 446.735 265.685H449.832C459.331 265.685 467.375 271.703 467.375 281.203V504.65H507.202V281.203C507.203 271.705 499.354 265.685 489.854 265.685Z" fill="#ED1E79"/>
<path d="M507.053 304.03H314.949V464.115H507.053V304.03Z" fill="white"/>
<path d="M411.006 440.103H314.949V464.117H411.006V440.103Z" fill="#F15A24"/>
<path d="M417.042 464.118C408.253 453.155 402.996 439.238 402.996 424.094C402.996 388.728 431.665 360.058 467.032 360.058C482.194 360.058 496.125 365.328 507.094 374.135L507.054 464.117L417.042 464.118Z" fill="#FBB03B"/>
<path d="M451.651 256.258H369.9V271.979H451.651V256.258Z" fill="black"/>
<path d="M427.546 329.624H338.458V345.345H427.546V329.624Z" fill="#F15A24"/>
<path d="M369.901 353.73H338.458V369.451H369.901V353.73Z" fill="black"/>
<path d="M355.227 377.836H338.458V393.557H355.227V377.836Z" fill="#F15A24"/>
<path d="M482.897 168.213H467.176C467.176 146.203 449.559 127.785 426.501 127.785V112.064C457.943 112.064 482.897 136.77 482.897 168.213Z" fill="white"/>
<path d="M489.854 256.145H486.757C484.38 256.145 483.435 254.288 483.201 253.718C482.867 252.902 482.516 251.325 483.923 249.939C503.907 230.262 514.913 203.988 514.913 175.958C514.913 147.421 503.58 120.812 483 101.031C475.442 93.767 467.005 87.793 457.941 83.189V55.019H475.759V39.298H466.887V0H355.113V39.298H346.846V55.019H362.567V84.319C330.106 101.837 307.524 136.192 307.093 174.769C306.778 202.979 317.597 229.493 337.559 249.423C339.456 251.317 338.808 253.386 338.564 253.976C338.155 254.964 337.241 256.142 335.21 256.142H332.145C318.327 256.142 307.085 267.384 307.085 281.201V511.998H514.914V281.203C514.914 267.385 503.672 256.145 489.854 256.145ZM395.056 39.298V15.721H426.499V39.298H395.056ZM451.166 39.298H442.221V15.721H451.166V39.298ZM370.834 15.721H379.336V39.298H370.834V15.721ZM378.287 55.019H442.22V76.782C430.944 73.247 419.003 71.641 406.783 72.124C396.895 72.516 387.328 74.366 378.287 77.448V55.019ZM322.806 449.101H399.65C400.714 451.971 401.96 454.771 403.381 457.486H322.806V449.101ZM499.193 496.279H322.806V473.207H499.192V496.279H499.193ZM499.193 457.486H421.857C414.656 447.781 410.856 436.284 410.856 424.095C410.856 393.12 436.056 367.92 467.031 367.92C478.712 367.92 489.751 371.415 499.193 378.042V457.486ZM499.193 359.8C489.265 354.845 478.228 352.199 467.031 352.199C427.387 352.199 395.134 384.451 395.134 424.096C395.134 427.211 395.343 430.312 395.744 433.381H322.805V313.898H499.192V359.8H499.193ZM499.193 298.176H322.806V281.203C322.806 276.245 326.694 272.187 331.581 271.894L363.319 271.974L363.761 256.778L354.072 256.894C355.603 250.288 353.638 243.265 348.665 238.299C331.725 221.385 322.543 198.887 322.811 174.946C323.328 128.74 361.277 89.662 407.405 87.834C431.672 86.883 454.649 95.585 472.105 112.362C489.572 129.151 499.191 151.735 499.191 175.955C499.191 199.739 489.85 222.035 472.891 238.735C468.121 243.433 466.238 249.906 467.602 256.253H458.989V271.974H491.2C495.712 272.63 499.192 276.513 499.192 281.203V298.176H499.193Z" fill="black"/>
<path d="M398.397 185.766C400.8 187.381 403.619 190.525 402.88 193.416C403.018 193.798 403.065 194.224 402.833 194.69C388.506 221.125 374.688 247.812 360.639 274.374C381.898 287.038 395.946 314.704 393.774 337.654C394.19 338.632 393.866 339.949 392.527 340.416C390.355 341.18 388.182 341.819 386.01 342.456C381.02 400.423 369.327 459.622 357.635 516.697C357.45 517.504 356.757 517.887 356.017 517.93C355.787 518.142 355.51 518.27 355.139 518.398C330.46 526.345 288.775 530.679 269.458 510.111C268.441 510.195 267.332 509.813 267.194 508.751C258.321 453.079 246.582 396.514 242.285 340.374C239.835 339.482 237.386 338.547 235.028 337.442C234.521 337.187 234.289 336.805 234.289 336.336C234.058 336.166 233.965 335.87 234.012 335.529C239.096 292.351 297.834 247.345 345.388 267.574C357.912 239.739 373.81 212.115 388.368 185.937C388.414 185.809 388.553 185.682 388.645 185.596C388.598 185.298 388.692 185.043 389.015 184.873C392.112 183.344 395.624 183.938 398.397 185.766ZM390.217 210.457C393.083 205.187 395.994 199.918 398.906 194.69C395.209 195.582 391.605 193.246 389.755 190.228C388.322 193.287 386.89 196.39 385.457 199.45C385.826 199.577 386.058 199.916 385.92 200.342C384.995 203.529 386.613 206.036 388.6 208.501C389.107 209.14 389.708 209.777 390.217 210.457ZM399.228 191.715C398.581 190.441 397.981 189.25 396.455 188.273C394.884 187.254 393.036 186.658 391.141 186.446C391.188 186.744 391.233 187.042 391.049 187.381C391.049 187.424 391.002 187.466 391.002 187.509C392.528 190.525 395.762 191.333 399.228 191.715ZM388.461 213.602C387.768 212.795 387.167 211.944 386.566 211.095C385.641 209.862 384.718 208.63 384.025 207.271C383.609 206.336 383.332 205.358 383.193 204.382C377.694 216.239 372.055 228.223 366.14 240.208C366.464 241.525 366.926 242.801 367.619 244.032C368.359 245.306 369.329 246.37 370.254 247.432C376.168 236.083 382.268 224.821 388.461 213.602ZM390.124 336.974C387.074 311.731 377.785 295.155 359.253 276.967C357.543 280.197 355.787 283.468 354.077 286.741C354.124 286.741 354.169 286.741 354.216 286.784C357.59 289.632 356.019 295.198 353.06 297.791C349.04 301.403 342.662 300.171 338.179 298.003C333.372 295.665 329.537 290.779 331.2 285.594C332.355 282.025 336.052 280.069 339.657 280.792C340.997 277.519 342.43 274.248 343.863 271.018C343.677 270.975 343.492 270.975 343.308 270.89C317.751 260.308 284.8 272.717 265.621 288.824C250.416 301.658 243.068 317.468 236.922 335.104C283.831 349.298 343.078 351.719 390.124 336.974ZM375.982 378.876C378.34 366.934 380.834 354.992 383.654 343.22C359.253 350.19 333.973 350.913 308.325 349.808C287.204 348.916 265.299 348.065 245.335 341.436C247.46 350.871 249.355 360.433 251.158 369.995C289.147 393.454 334.021 396.343 375.66 378.962C375.752 378.918 375.844 378.918 375.982 378.876ZM362.535 456.774C366.187 432.423 370.299 408.029 374.967 383.89C335.13 401.952 287.391 397.363 251.759 373.52C255.965 396.427 259.338 419.631 262.435 442.792C286.604 463.405 332.587 466.039 362.535 456.774ZM368.82 250.235C366.648 248.663 365.215 246.283 364.383 243.69C360.363 251.722 356.204 259.754 351.813 267.532C352.043 268.933 352.414 270.336 352.922 271.611C353.523 273.269 354.817 274.841 355.601 276.456C359.901 267.659 364.337 258.904 368.82 250.235ZM354.124 514.274C356.665 496.68 359.208 478.959 361.841 461.194C332.865 469.949 285.91 467.994 262.988 447C265.714 467.441 268.302 487.883 271.261 508.069C292.704 525.196 329.121 522.306 353.938 514.316C353.985 514.274 354.077 514.274 354.124 514.274ZM351.489 294.05C352.321 292.776 352.321 291.585 352.137 290.353C351.12 292.266 350.103 294.221 349.086 296.09C350.01 295.708 350.888 295.07 351.489 294.05ZM354.309 279.133C351.998 277.859 350.796 274.586 350.242 272.291C350.103 271.781 350.011 271.271 349.965 270.76C345.667 278.24 341.231 285.55 336.563 292.561C338.042 294.176 340.167 295.196 342.339 295.919C343.542 296.259 344.789 296.514 345.991 296.599C348.671 290.736 351.536 284.956 354.309 279.133ZM335.591 291.245C336.561 288.568 337.625 285.934 338.687 283.256C335.312 283.809 333.696 287.506 335.174 290.608C335.267 290.82 335.452 291.033 335.591 291.245Z" fill="#1D1D1B"/>
<path d="M398.905 194.69C395.993 199.918 393.081 205.188 390.216 210.457C389.707 209.777 389.107 209.14 388.598 208.502C386.611 206.037 384.994 203.53 385.918 200.343C386.057 199.918 385.826 199.578 385.456 199.451C386.888 196.391 388.321 193.289 389.754 190.229C391.603 193.246 395.208 195.582 398.905 194.69Z" fill="#EF67AC"/>
<path d="M396.455 188.273C397.98 189.251 398.581 190.441 399.228 191.715C395.762 191.333 392.527 190.525 391.002 187.507C391.002 187.465 391.049 187.423 391.049 187.38C391.234 187.041 391.188 186.743 391.141 186.445C393.036 186.658 394.884 187.253 396.455 188.273Z" fill="#EF67AC"/>
<path d="M386.566 211.094C387.167 211.944 387.768 212.793 388.461 213.601C382.268 224.82 376.168 236.082 370.252 247.429C369.327 246.366 368.357 245.304 367.618 244.028C366.925 242.796 366.462 241.521 366.138 240.204C372.054 228.219 377.692 216.235 383.192 204.378C383.33 205.356 383.608 206.332 384.023 207.267C384.718 208.63 385.641 209.862 386.566 211.094Z" fill="#EF67AC"/>
<path d="M381.621 317.891C384.023 320.484 385.317 323.628 385.087 327.072C384.995 328.05 383.424 328.05 383.377 327.072C383.33 324.012 382.407 321.207 380.512 318.7C380.05 318.062 381.113 317.339 381.621 317.891Z" fill="#1D1D1B"/>
<path d="M359.253 276.967C377.785 295.155 387.074 311.729 390.124 336.974C343.078 351.721 283.831 349.298 236.923 335.104C243.069 317.468 250.417 301.658 265.622 288.824C284.801 272.717 317.753 260.308 343.31 270.89C343.495 270.975 343.679 270.975 343.864 271.018C342.431 274.248 340.999 277.519 339.658 280.792C336.053 280.069 332.357 282.025 331.202 285.594C329.538 290.779 333.374 295.666 338.18 298.003C342.663 300.171 349.041 301.403 353.062 297.791C356.02 295.198 357.591 289.632 354.217 286.784C354.17 286.741 354.125 286.741 354.078 286.741C355.787 283.468 357.543 280.195 359.253 276.967ZM385.087 327.072C385.317 323.63 384.023 320.484 381.621 317.892C381.113 317.339 380.05 318.062 380.512 318.699C382.407 321.206 383.33 324.011 383.377 327.07C383.424 328.048 384.995 328.048 385.087 327.072ZM349.594 341.903C350.148 341.478 349.547 340.586 348.901 340.798C345.435 342.031 342.431 343.093 338.688 342.88C337.763 342.837 337.81 344.07 338.688 344.154C342.431 344.58 346.544 344.112 349.594 341.903ZM349.317 338.589C350.334 338.291 349.918 336.931 348.901 337.101C346.544 337.526 344.233 338.079 341.922 338.673C340.906 338.886 341.368 340.288 342.385 340.076C344.695 339.651 347.053 339.183 349.317 338.589ZM329.213 294.305C330.415 294.517 330.831 293.029 329.722 292.606C326.949 291.543 325.378 288.909 326.441 286.231C326.765 285.551 325.517 285.042 325.101 285.722C323.298 288.95 325.054 293.625 329.213 294.305ZM329.307 300.34C330.093 300.51 330.462 299.405 329.677 299.193C325.286 297.96 321.728 294.901 320.249 290.949C320.064 290.396 319.185 290.608 319.371 291.161C320.665 295.708 324.361 299.15 329.307 300.34ZM322.097 270.379C323.022 270.167 322.606 268.976 321.728 269.105C319.187 269.572 316.691 270.083 314.241 270.72C313.41 270.932 313.734 271.994 314.565 271.867C317.105 271.484 319.601 270.973 322.097 270.379ZM303.935 317.637C304.212 316.957 303.103 316.745 302.826 317.339C302.179 318.742 301.624 320.187 301.07 321.588C300.793 322.268 301.948 322.523 302.225 321.886C302.825 320.484 303.426 319.081 303.935 317.637ZM260.216 308.329C260.632 307.649 259.57 307.139 259.107 307.733C257.536 309.731 256.104 311.771 254.763 313.939C254.301 314.619 255.411 315.171 255.918 314.534C257.488 312.537 258.876 310.455 260.216 308.329ZM254.994 308.882C255.409 308.372 254.531 307.776 254.024 308.202C250.928 311.006 248.986 314.364 248.108 318.315C247.969 318.953 248.94 319.207 249.172 318.57C250.557 315.13 252.544 311.814 254.994 308.882Z" fill="#66C5EE"/>
<path d="M383.654 343.22C380.836 354.992 378.34 366.934 375.982 378.876C375.844 378.919 375.752 378.919 375.659 378.961C334.02 396.342 289.146 393.453 251.157 369.994C249.354 360.431 247.46 350.87 245.333 341.435C265.299 348.065 287.204 348.914 308.323 349.806C333.973 350.913 359.253 350.19 383.654 343.22ZM365.168 352.952C365.955 352.527 365.446 351.507 364.567 351.678C361.286 352.23 357.912 353.973 354.909 355.374C354.261 355.672 354.723 356.649 355.416 356.437C358.652 355.545 362.35 354.653 365.168 352.952ZM364.846 355.672C365.4 354.992 364.383 354.185 363.644 354.567C361.657 355.586 360.086 356.649 357.728 356.776C356.712 356.819 356.712 358.136 357.728 358.178C360.363 358.35 363.228 357.712 364.846 355.672ZM316.597 374.243C317.245 374.328 317.476 373.52 316.875 373.308C315.534 372.84 314.24 372.458 312.854 372.119C312.023 371.907 311.652 373.096 312.484 373.308C313.871 373.691 315.21 373.988 316.597 374.243ZM273.802 371.227C274.495 371.481 275.049 370.376 274.31 370.08C270.057 368.38 265.945 366.255 262.202 363.663C261.509 363.237 260.63 364.257 261.277 364.768C265.115 367.571 269.181 369.739 273.802 371.227ZM262.619 372.246C263.312 372.628 263.913 371.65 263.265 371.268C261.001 369.781 258.69 368.379 256.38 366.976C255.687 366.551 255.039 367.528 255.733 367.954C257.997 369.441 260.308 370.844 262.619 372.246Z" fill="#CCECF9"/>
<path d="M364.567 351.678C365.446 351.507 365.953 352.528 365.168 352.952C362.35 354.651 358.652 355.545 355.418 356.437C354.725 356.649 354.262 355.672 354.91 355.374C357.914 353.973 361.286 352.23 364.567 351.678Z" fill="#1D1D1B"/>
<path d="M374.966 383.89C370.298 408.029 366.185 432.423 362.534 456.774C332.587 466.039 286.603 463.405 262.434 442.792C259.337 419.631 255.964 396.427 251.758 373.52C287.389 397.363 335.129 401.952 374.966 383.89ZM332.218 404.374C333.282 403.907 332.542 402.334 331.479 402.632C328.428 403.567 325.517 404.799 322.606 405.946C321.681 406.329 322.329 407.689 323.252 407.434C326.256 406.457 329.307 405.564 332.218 404.374ZM330.6 400.295C331.525 400.211 331.571 398.935 330.6 398.935C328.428 398.892 326.303 398.978 324.177 399.147C322.56 399.232 320.896 399.19 319.464 399.87C319.233 399.954 319.325 400.252 319.511 400.338C321.128 400.891 322.93 400.636 324.641 400.636C326.625 400.593 328.614 400.507 330.6 400.295ZM317.06 432.806C317.753 432.466 317.29 431.318 316.506 431.616C314.056 432.594 311.515 433.061 308.787 432.721C307.955 432.594 307.54 433.783 308.418 433.954C311.467 434.464 314.333 434.209 317.06 432.806ZM276.669 446.065C277.455 446.235 277.777 445.215 277.038 445.003C273.941 444.111 271.122 442.792 268.626 440.881C267.98 440.371 267.055 441.22 267.701 441.731C270.336 443.897 273.248 445.385 276.669 446.065Z" fill="#EF67AC"/>
<path d="M364.383 243.69C365.215 246.283 366.648 248.663 368.82 250.235C364.337 258.904 359.901 267.659 355.603 276.456C354.818 274.841 353.523 273.269 352.923 271.611C352.415 270.336 352.045 268.933 351.814 267.532C356.203 259.754 360.363 251.722 364.383 243.69Z" fill="#EF67AC"/>
<path d="M363.644 354.567C364.383 354.185 365.4 354.992 364.846 355.672C363.228 357.712 360.363 358.35 357.728 358.179C356.712 358.136 356.712 356.819 357.728 356.777C360.086 356.65 361.657 355.588 363.644 354.567Z" fill="#1D1D1B"/>
<path d="M361.841 461.194C359.206 478.958 356.665 496.68 354.124 514.274C354.077 514.274 353.985 514.274 353.938 514.317C329.121 522.306 292.704 525.197 271.261 508.071C268.304 487.884 265.714 467.442 262.988 447.001C285.911 467.994 332.865 469.949 361.841 461.194ZM350.242 476.919C351.027 476.196 349.871 475.219 349.086 475.814C347.561 477.003 345.851 477.683 343.864 477.768C342.894 477.811 342.894 479.171 343.864 479.171C346.36 479.214 348.485 478.491 350.242 476.919ZM349.594 472.499C350.472 471.989 349.918 470.757 348.946 470.969C347.422 471.309 345.943 471.819 344.417 472.116C342.707 472.456 340.997 472.456 339.288 472.625C338.548 472.71 338.271 473.688 339.102 473.9C342.385 474.751 346.729 474.156 349.594 472.499ZM278.517 500.42C278.702 501.227 280.18 501.057 280.088 500.249C279.811 498.04 279.442 495.829 278.933 493.662C278.747 492.854 277.223 492.982 277.315 493.874C277.592 496.086 278.008 498.252 278.517 500.42ZM273.849 501.143C274.311 501.993 275.652 501.227 275.235 500.42C274.171 498.295 273.432 496 272.832 493.748C272.647 493.11 271.585 493.238 271.63 493.875C271.77 496.51 272.601 498.805 273.849 501.143Z" fill="#CCECF9"/>
<path d="M350.242 272.292C350.796 274.587 351.998 277.859 354.309 279.134C351.536 284.957 348.671 290.736 345.991 296.601C344.789 296.517 343.542 296.262 342.34 295.921C340.167 295.198 338.042 294.179 336.563 292.564C341.231 285.551 345.667 278.242 349.965 270.763C350.01 271.271 350.103 271.781 350.242 272.292Z" fill="#EF67AC"/>
<path d="M349.086 475.814C349.871 475.219 351.027 476.196 350.242 476.919C348.485 478.491 346.36 479.214 343.864 479.171C342.894 479.171 342.894 477.811 343.864 477.768C345.851 477.683 347.561 477.003 349.086 475.814Z" fill="#1D1D1B"/>
<path d="M348.948 470.969C349.918 470.757 350.472 471.988 349.596 472.499C346.73 474.157 342.386 474.751 339.105 473.901C338.274 473.689 338.551 472.711 339.291 472.627C341 472.456 342.71 472.456 344.42 472.117C345.944 471.819 347.422 471.309 348.948 470.969Z" fill="#1D1D1B"/>
<path d="M348.901 340.798C349.549 340.586 350.148 341.478 349.594 341.903C346.544 344.114 342.431 344.58 338.688 344.155C337.81 344.071 337.763 342.838 338.688 342.881C342.431 343.093 345.435 342.031 348.901 340.798Z" fill="#1D1D1B"/>
<path d="M348.901 337.101C349.918 336.931 350.334 338.291 349.317 338.589C347.053 339.183 344.695 339.651 342.385 340.076C341.368 340.288 340.906 338.886 341.922 338.673C344.233 338.078 346.544 337.525 348.901 337.101Z" fill="#1D1D1B"/>
<path d="M331.479 402.632C332.542 402.334 333.282 403.906 332.218 404.374C329.307 405.564 326.256 406.457 323.253 407.434C322.328 407.689 321.681 406.329 322.606 405.946C325.517 404.799 328.428 403.567 331.479 402.632Z" fill="#1D1D1B"/>
<path d="M330.601 398.935C331.571 398.935 331.525 400.209 330.601 400.295C328.614 400.507 326.625 400.593 324.638 400.635C322.929 400.635 321.126 400.889 319.508 400.337C319.323 400.252 319.231 399.955 319.461 399.869C320.894 399.189 322.557 399.232 324.175 399.146C326.303 398.978 328.428 398.892 330.601 398.935Z" fill="#1D1D1B"/>
<path d="M329.722 292.606C330.831 293.031 330.415 294.518 329.213 294.305C325.054 293.625 323.298 288.95 325.101 285.72C325.517 285.04 326.764 285.55 326.441 286.23C325.378 288.907 326.949 291.543 329.722 292.606Z" fill="#1D1D1B"/>
<path d="M329.676 299.193C330.461 299.405 330.091 300.51 329.305 300.34C324.36 299.15 320.663 295.708 319.369 291.161C319.184 290.608 320.062 290.396 320.247 290.949C321.727 294.901 325.286 297.96 329.676 299.193Z" fill="#1D1D1B"/>
<path d="M321.727 269.104C322.605 268.976 323.021 270.166 322.096 270.378C319.6 270.973 317.105 271.483 314.562 271.866C313.731 271.993 313.407 270.931 314.239 270.719C316.689 270.081 319.185 269.572 321.727 269.104Z" fill="#1D1D1B"/>
<path d="M316.506 431.616C317.29 431.318 317.753 432.466 317.06 432.806C314.333 434.209 311.468 434.464 308.418 433.954C307.54 433.783 307.956 432.594 308.787 432.721C311.514 433.061 314.055 432.594 316.506 431.616Z" fill="#1D1D1B"/>
<path d="M316.875 373.308C317.476 373.52 317.244 374.328 316.597 374.243C315.212 373.988 313.871 373.691 312.485 373.308C311.654 373.095 312.023 371.905 312.856 372.119C314.24 372.459 315.534 372.842 316.875 373.308Z" fill="#1D1D1B"/>
<path d="M302.825 317.339C303.102 316.745 304.211 316.957 303.934 317.637C303.426 319.081 302.825 320.484 302.224 321.886C301.947 322.523 300.791 322.268 301.069 321.588C301.624 320.187 302.179 318.742 302.825 317.339Z" fill="#1D1D1B"/>
<path d="M280.088 500.25C280.18 501.058 278.702 501.228 278.517 500.421C278.009 498.253 277.592 496.086 277.315 493.876C277.223 492.984 278.747 492.857 278.933 493.664C279.44 495.831 279.811 498.04 280.088 500.25Z" fill="#1D1D1B"/>
<path d="M277.038 445.003C277.777 445.215 277.453 446.235 276.669 446.065C273.249 445.385 270.337 443.897 267.703 441.73C267.056 441.22 267.98 440.37 268.628 440.879C271.122 442.793 273.941 444.111 277.038 445.003Z" fill="#1D1D1B"/>
<path d="M275.235 500.42C275.65 501.227 274.31 501.992 273.849 501.142C272.601 498.805 271.768 496.511 271.63 493.875C271.583 493.238 272.647 493.11 272.832 493.748C273.433 496 274.173 498.295 275.235 500.42Z" fill="#1D1D1B"/>
<path d="M274.311 370.078C275.051 370.376 274.496 371.481 273.803 371.225C269.182 369.738 265.115 367.57 261.28 364.765C260.632 364.256 261.51 363.235 262.204 363.66C265.946 366.254 270.059 368.379 274.311 370.078Z" fill="#1D1D1B"/>
<path d="M263.265 371.269C263.913 371.652 263.312 372.63 262.619 372.247C260.308 370.846 257.997 369.442 255.733 367.955C255.04 367.53 255.687 366.552 256.38 366.977C258.69 368.379 261.001 369.782 263.265 371.269Z" fill="#1D1D1B"/>
<path d="M259.106 307.735C259.568 307.139 260.63 307.65 260.215 308.33C258.874 310.455 257.488 312.538 255.917 314.535C255.409 315.173 254.299 314.62 254.762 313.94C256.102 311.772 257.535 309.732 259.106 307.735Z" fill="#1D1D1B"/>
<path d="M254.022 308.202C254.53 307.776 255.408 308.372 254.992 308.882C252.543 311.814 250.556 315.128 249.169 318.572C248.938 319.209 247.967 318.954 248.105 318.317C248.985 314.364 250.926 311.006 254.022 308.202Z" fill="#1D1D1B"/>
<path d="M268.599 514.801H36.395C21.376 514.801 9.20001 502.625 9.20001 487.606V441.584C9.20001 426.565 21.376 414.389 36.395 414.389H268.598C283.617 414.389 295.793 426.565 295.793 441.584V487.606C295.794 502.625 283.618 514.801 268.599 514.801Z" fill="#94D1EA"/>
<path d="M268.599 414.389H36.395C21.376 414.389 9.20001 402.213 9.20001 387.194V341.172C9.20001 326.153 21.376 313.977 36.395 313.977H268.598C283.617 313.977 295.793 326.153 295.793 341.172V387.194C295.794 402.213 283.618 414.389 268.599 414.389Z" fill="#94D1EA"/>
<path d="M268.599 313.976H36.395C21.376 313.976 9.20001 301.8 9.20001 286.781V240.759C9.20001 225.74 21.376 213.564 36.395 213.564H268.598C283.617 213.564 295.793 225.74 295.793 240.759V286.781C295.794 301.801 283.618 313.976 268.599 313.976Z" fill="#EAE8E8"/>
<path d="M268.599 213.564H36.395C21.376 213.564 9.20001 201.388 9.20001 186.369V140.347C9.20001 125.328 21.376 113.152 36.395 113.152H268.598C283.617 113.152 295.793 125.328 295.793 140.347V186.369C295.794 201.388 283.618 213.564 268.599 213.564Z" fill="#EAE8E8"/>
<path d="M203.748 66.087H101.246V113.156H203.748V66.087Z" fill="#EAE8E8"/>
<path d="M217.347 66.084H87.647V37.32C87.647 29.522 93.968 23.199 101.768 23.199H203.227C211.025 23.199 217.348 29.52 217.348 37.32V66.084H217.347Z" fill="#FFBA7A"/>
<path d="M306.993 186.369V140.346C306.993 119.726 290.218 102.952 269.599 102.952H214.949V76.283H218.347C223.979 76.283 228.546 71.716 228.546 66.084V37.32C228.546 23.909 217.637 13 204.226 13H102.767C89.357 13 78.447 23.909 78.447 37.32V66.084C78.447 71.716 83.014 76.283 88.646 76.283H92.044V102.952H37.394C16.774 102.952 0 119.727 0 140.346V186.369C0 197.076 4.53001 206.74 11.768 213.563C4.53101 220.386 0 230.05 0 240.758V286.78C0 297.488 4.53001 307.152 11.768 313.975C4.53101 320.798 0 330.462 0 341.17V387.192C0 397.9 4.53001 407.564 11.768 414.387C4.53101 421.21 0 430.874 0 441.582V487.604C0 508.224 16.775 524.998 37.394 524.998H269.597C290.217 524.998 306.991 508.223 306.991 487.604V441.582C306.991 430.874 302.461 421.21 295.223 414.387C302.46 407.564 306.991 397.9 306.991 387.192V341.17C306.991 330.462 302.461 320.798 295.223 313.975C302.46 307.152 306.991 297.488 306.991 286.78V240.758C306.991 230.05 302.461 220.386 295.223 213.563C302.462 206.741 306.993 197.077 306.993 186.369ZM98.847 55.885V37.32C98.847 35.158 100.606 33.398 102.769 33.398H204.227C206.389 33.398 208.149 35.157 208.149 37.32V55.885C208.148 55.885 98.847 55.885 98.847 55.885ZM112.444 76.283H194.55V102.952H112.444V76.283ZM286.595 441.584V487.606C286.595 496.977 278.97 504.602 269.599 504.602H37.395C28.024 504.602 20.399 496.977 20.399 487.606V441.584C20.399 432.213 28.024 424.588 37.395 424.588H269.598C278.97 424.588 286.595 432.212 286.595 441.584ZM286.595 341.172V387.194C286.595 396.565 278.97 404.19 269.599 404.19H37.395C28.024 404.19 20.399 396.565 20.399 387.194V341.172C20.399 331.801 28.024 324.176 37.395 324.176H269.598C278.97 324.176 286.595 331.8 286.595 341.172ZM286.595 240.759V286.781C286.595 296.152 278.97 303.777 269.599 303.777H37.395C28.024 303.777 20.399 296.152 20.399 286.781V240.759C20.399 231.388 28.024 223.763 37.395 223.763H269.598C278.97 223.762 286.595 231.387 286.595 240.759ZM269.599 123.35C278.97 123.35 286.595 130.975 286.595 140.346V186.369C286.595 195.74 278.97 203.364 269.599 203.364H37.395C28.024 203.364 20.399 195.74 20.399 186.369V140.346C20.399 130.975 28.024 123.35 37.395 123.35H269.599Z" fill="#5E282D"/>
<path d="M31.381 381.191C31.381 386.823 35.948 391.39 41.58 391.39H114.797C120.429 391.39 124.996 386.823 124.996 381.191C124.996 375.559 120.429 370.992 114.797 370.992H41.58C35.947 370.992 31.381 375.559 31.381 381.191Z" fill="#5E282D"/>
<path d="M146.175 391.39H152.451C158.083 391.39 162.65 386.823 162.65 381.191C162.65 375.559 158.083 370.992 152.451 370.992H146.175C140.543 370.992 135.976 375.559 135.976 381.191C135.976 386.823 140.543 391.39 146.175 391.39Z" fill="#5E282D"/>
<path d="M409.111 512.999H272.89L262.161 296.867H419.84L409.111 512.999Z" fill="#ED1E79"/>
<path d="M420.947 271.001H261.054C253.871 271.001 248.048 276.791 248.048 283.933C248.048 291.075 253.871 296.865 261.054 296.865H420.948C428.132 296.865 433.955 291.075 433.955 283.933C433.954 276.791 428.131 271.001 420.947 271.001Z" fill="white"/>
<path d="M442 283.934C442 272.392 432.556 263 420.947 263H261.054C249.445 263 240 272.392 240 283.934C240 293.182 246.068 301.034 254.448 303.796L264.853 513.394C265.064 517.654 268.599 521 272.89 521H409.111C413.402 521 416.937 517.654 417.148 513.394L427.553 303.796C435.932 301.034 442 293.182 442 283.934ZM261.054 279.001H420.947C423.682 279.001 425.908 281.214 425.908 283.934C425.908 286.653 423.683 288.866 420.947 288.866C415.405 288.866 266.993 288.866 261.054 288.866C258.319 288.866 256.093 286.653 256.093 283.934C256.093 281.214 258.318 279.001 261.054 279.001ZM401.451 505H280.549L275.979 412.934H345.515C349.959 412.934 353.562 409.353 353.562 404.933C353.562 400.513 349.959 396.932 345.515 396.932H275.185L270.614 304.867H411.386L401.451 505Z" fill="#414042"/>
<path d="M372.694 412.934H387.714C392.158 412.934 395.761 409.353 395.761 404.933C395.761 400.513 392.158 396.932 387.714 396.932H372.694C368.25 396.932 364.648 400.514 364.648 404.933C364.648 409.351 368.25 412.934 372.694 412.934Z" fill="#414042"/>
</svg>
