<?xml version="1.0" encoding="iso-8859-1"?>
<!-- Generator: Adobe Illustrator 19.0.0, SVG Export Plug-In . SVG Version: 6.00 Build 0)  -->
<svg version="1.1" id="Layer_1" xmlns="http://www.w3.org/2000/svg" xmlns:xlink="http://www.w3.org/1999/xlink" x="0px" y="0px"
	 viewBox="0 0 511.999 511.999" style="enable-background:new 0 0 511.999 511.999;" xml:space="preserve">
<polygon style="fill:#7FA339;" points="442.204,352.599 243.396,352.599 243.396,462.865 410.613,462.865 442.204,408.255 "/>
<polygon style="fill:#1E3D2E;" points="94.567,151.46 10.349,297.989 41.951,352.599 85.619,388.293 189.973,206.745 "/>
<g>
	<polygon style="fill:#4F7034;" points="353.269,32.251 258.178,32.251 258.178,88.091 341.634,233.292 437.052,178.007 	"/>
	<path style="fill:#4F7034;" d="M297.689,402.25l-59.341-66.026c-3.008-3.347-8.142-3.606-11.467-0.578
		c-3.326,3.027-3.584,8.193-0.576,11.54l4.865,5.413H41.951l63.391,110.265H231.17l-4.864,5.412
		c-3.008,3.347-2.75,8.513,0.576,11.54c1.553,1.414,3.501,2.111,5.444,2.111c2.215,0,4.422-0.906,6.024-2.69l59.341-66.026
		C300.486,410.1,300.486,405.363,297.689,402.25z"/>
</g>
<path style="fill:#DDD244;" d="M442.534,187.548l7.129,1.532c4.413,0.948,8.756-1.861,9.704-6.271
	c0.948-4.412-1.86-8.756-6.271-9.704l-86.886-18.671c-4.1-0.88-8.204,1.487-9.493,5.481l-27.369,84.877
	c-1.385,4.294,0.974,8.899,5.269,10.284c0.833,0.269,1.678,0.397,2.509,0.397c3.451,0,6.658-2.204,7.775-5.665l2.238-6.939
	l95.066,165.388l63.804-110.265L442.534,187.548z"/>
<path style="fill:#7FA339;" d="M203.971,192.983l-7.031,1.509l93.331-162.241H165.083l-62.032,107.832l-2.202-6.823
	c-1.363-4.223-5.891-6.545-10.122-5.181c-4.227,1.362-6.549,5.89-5.186,10.114l26.94,83.477c1.09,3.376,4.226,5.571,7.648,5.571
	c0.56,0,1.127-0.059,1.695-0.181l85.526-18.363c4.342-0.932,7.106-5.205,6.173-9.544
	C212.59,194.812,208.312,192.048,203.971,192.983z"/>
<path d="M510.912,293.616l-59.814-104.06l5.221,1.122c4.414,0.948,8.756-1.861,9.704-6.271c0.948-4.412-1.86-8.756-6.271-9.704
	l-95.722-20.569c-4.1-0.88-8.204,1.487-9.493,5.481l-30.048,93.182c-1.385,4.294,0.974,8.899,5.269,10.284
	c0.833,0.269,1.678,0.397,2.509,0.397c3.451,0,6.658-2.204,7.775-5.665l1.531-4.746l52.344,91.065H285.272
	c-4.512,0-8.17,3.658-8.17,8.17c0,4.512,3.658,8.17,8.17,8.17H403.31l27.285,47.469l-26.879,46.454H285.273
	c-4.512,0-8.17,3.658-8.17,8.17c0,4.512,3.658,8.17,8.17,8.17H408.43c2.916,0,5.611-1.555,7.072-4.079l95.4-164.875
	C512.361,299.256,512.366,296.144,510.912,293.616z M440.052,391.599l-91.704-159.54l19.475-60.396l61.772,13.274l64.803,112.739
	L440.052,391.599z"/>
<path d="M297.132,401.951l-65.674-72.612c-3.027-3.347-8.194-3.606-11.54-0.578c-3.347,3.027-3.606,8.193-0.58,11.541l3.464,3.83
	H118.081l54.879-95.475c2.248-3.912,0.9-8.907-3.012-11.155c-3.91-2.247-8.906-0.9-11.155,3.012l-59.56,103.616H44.482
	l-26.88-46.455l59.877-104.169c2.248-3.912,0.9-8.907-3.012-11.155c-3.912-2.248-8.906-0.9-11.155,3.012L1.087,293.616
	c-1.453,2.528-1.449,5.64,0.012,8.164l95.4,164.875c1.461,2.524,4.156,4.079,7.072,4.079h119.232l-3.464,3.83
	c-3.026,3.346-2.767,8.513,0.58,11.541c1.563,1.414,3.524,2.111,5.477,2.111c2.229,0,4.449-0.906,6.062-2.69l65.674-72.614
	C299.946,409.8,299.946,405.062,297.132,401.951z M237.581,454.393h-129.3l-54.345-93.924h49.996c0.007,0,0.014,0.001,0.021,0.001
	c0.007,0,0.014-0.001,0.021-0.001h133.607l42.474,46.961L237.581,454.393z"/>
<path d="M107.469,224.543c1.107,3.433,4.293,5.664,7.77,5.664c0.569,0,1.146-0.06,1.722-0.184l95.721-20.569
	c4.412-0.948,7.219-5.292,6.271-9.704c-0.948-4.412-5.295-7.221-9.704-6.271l-5.221,1.122l51.969-90.413l54.382,94.609
	c1.511,2.629,4.262,4.1,7.091,4.1c1.381,0,2.781-0.351,4.064-1.088c3.912-2.248,5.261-7.243,3.012-11.155l-59.125-102.86
	l27.4-47.668h53.536l59.504,103.521c2.248,3.913,7.244,5.261,11.155,3.012c3.912-2.248,5.261-7.243,3.012-11.155L358.17,27.882
	c-1.458-2.536-4.159-4.098-7.084-4.098H160.914c-2.925,0-5.627,1.563-7.084,4.098l-59.326,103.21l-1.531-4.747
	c-1.386-4.294-5.986-6.655-10.284-5.268c-4.294,1.385-6.653,5.989-5.268,10.284L107.469,224.543z M165.641,40.125h108.333
	l-91.449,159.096l-61.772,13.274l-19.476-60.395L165.641,40.125z"/>
<g>
</g>
<g>
</g>
<g>
</g>
<g>
</g>
<g>
</g>
<g>
</g>
<g>
</g>
<g>
</g>
<g>
</g>
<g>
</g>
<g>
</g>
<g>
</g>
<g>
</g>
<g>
</g>
<g>
</g>
</svg>
