<svg version="1.1" id="Layer_1" xmlns="http://www.w3.org/2000/svg" xmlns:xlink="http://www.w3.org/1999/xlink" x="0px" y="0px"
	 width="100%" viewBox="0 0 448 448" enable-background="new 0 0 448 448" xml:space="preserve">
<path fill="#FFFFFF" opacity="1.000000" stroke="none" 
	d="
M46.873627,265.000000 
	C46.869923,225.177063 47.056698,185.852875 46.794937,146.531662 
	C46.625854,121.132896 66.393593,106.368507 86.538696,106.458145 
	C179.678894,106.872627 272.821930,106.640381 365.963959,106.649170 
	C388.333191,106.651283 404.320190,122.668785 404.326935,145.093719 
	C404.343170,198.912811 404.346222,252.731903 404.340393,306.550995 
	C404.337982,328.775665 388.209442,345.163666 365.936279,345.180115 
	C272.627686,345.249084 179.318985,345.246918 86.010399,345.177124 
	C63.119541,345.160034 46.864590,328.503021 46.868843,305.488861 
	C46.871307,292.159241 46.872272,278.829620 46.873627,265.000000 
M295.500000,329.045410 
	C318.329987,329.049835 341.159973,329.041107 363.989960,329.063141 
	C380.087433,329.078705 388.681519,320.547882 388.683746,304.451691 
	C388.690979,252.125107 388.691315,199.798538 388.685455,147.471954 
	C388.683624,130.998062 379.952820,122.319534 363.384705,122.319817 
	C271.396576,122.321373 179.407990,122.471504 87.420906,122.165413 
	C75.090851,122.124382 62.724277,130.730789 63.028721,146.353516 
	C63.583820,174.838776 63.161129,203.342987 63.155296,231.839294 
	C63.150318,256.169464 63.165546,280.499664 63.153214,304.829834 
	C63.150833,309.520538 63.271549,314.117310 65.939827,318.302643 
	C70.888153,326.064362 77.887245,329.107574 87.027039,329.090240 
	C156.184479,328.958893 225.342300,329.034576 295.500000,329.045410 
z"/>
<path fill="#FFFFFF" opacity="1.000000" stroke="none" 
	d="
M201.085266,257.868042 
	C213.480759,266.044586 225.614304,273.965820 237.660812,282.017273 
	C240.401306,283.848938 243.154678,284.806793 246.498688,284.726959 
	C253.992157,284.548096 261.493256,284.721619 268.990295,284.650055 
	C274.030548,284.601959 276.957001,281.948700 276.918671,277.692780 
	C276.880798,273.486542 274.356842,271.282654 269.305786,271.077148 
	C265.651886,270.928467 261.987152,271.244232 258.352142,270.455902 
	C247.688751,268.143250 239.429016,257.760803 240.027878,247.303802 
	C240.701645,235.538513 248.729507,226.872040 260.267303,225.538147 
	C268.238953,224.616547 276.245178,224.898239 284.225098,225.271652 
	C290.002899,225.542007 293.135101,228.659302 293.121033,233.374649 
	C293.107025,238.071457 289.429901,241.141220 283.449677,241.227982 
	C276.953003,241.322235 270.453217,241.197250 263.956268,241.281723 
	C258.774170,241.349091 256.389343,243.440704 256.268127,247.757828 
	C256.143433,252.199615 258.771545,254.629852 263.998901,254.800797 
	C266.662140,254.887909 269.337158,254.718567 271.994080,254.878036 
	C283.711670,255.581451 293.471008,266.228455 293.232025,277.959869 
	C292.978210,290.418793 283.310150,300.240906 271.022797,300.351013 
	C261.026794,300.440613 251.028015,300.260071 241.032883,300.387695 
	C237.660538,300.430756 234.972824,299.226532 232.254120,297.427979 
	C212.528549,284.378510 192.752472,271.405243 172.969254,258.443176 
	C171.481384,257.468323 170.143600,256.077972 167.239456,256.066467 
	C167.239456,259.808044 167.240753,263.542175 167.239197,267.276337 
	C167.235794,275.440460 167.375824,283.608032 167.180298,291.767578 
	C167.027069,298.161530 161.867538,301.912140 156.418564,299.872650 
	C152.799164,298.517944 151.737595,295.717468 151.546082,292.002869 
	C150.507080,271.852234 151.394531,251.693604 151.106003,231.541901 
	C151.072617,229.209824 151.111694,226.876740 151.114914,224.544113 
	C151.125732,216.709671 151.117264,216.735046 143.769424,214.397598 
	C139.751846,213.119537 137.662628,210.098755 137.974579,206.090317 
	C138.291931,202.012421 141.062469,198.849655 145.125748,199.072586 
	C151.154953,199.403381 151.295425,196.320740 151.183777,191.799866 
	C151.027954,185.489944 150.566223,179.146072 151.559128,172.841766 
	C152.220154,168.644714 154.640091,165.892685 158.807617,165.909088 
	C176.773972,165.979752 194.824600,164.276276 212.686172,166.734741 
	C228.538666,168.916687 239.280167,178.366608 244.803802,193.326492 
	C246.200317,197.108749 247.610596,199.073212 252.034409,198.955719 
	C257.320496,198.815338 260.120331,201.758926 260.338043,206.300262 
	C260.577454,211.293320 258.117432,214.483902 252.544144,214.618713 
	C247.816620,214.733063 246.063629,216.875641 244.518814,220.924011 
	C238.010406,237.980194 223.702515,247.501740 204.569275,247.886993 
	C198.785904,248.003448 192.998199,247.905029 186.057480,247.905029 
	C191.516953,251.519485 196.154358,254.589691 201.085266,257.868042 
M228.342331,195.048721 
	C223.007431,186.175735 215.295914,181.707153 204.811035,181.940842 
	C196.170792,182.133438 187.522583,181.934448 178.878952,182.017319 
	C165.674988,182.143906 167.517120,179.720734 167.208130,194.106979 
	C167.125031,197.976944 168.759689,198.956268 172.270050,198.857193 
	C178.748245,198.674332 185.235138,198.797943 191.718414,198.797989 
	C202.856339,198.798096 213.994781,198.855576 225.131607,198.746414 
	C226.855179,198.729538 230.239487,199.825775 228.342331,195.048721 
M200.466949,231.769928 
	C203.296906,231.740967 206.134689,231.836914 208.955383,231.660217 
	C218.297974,231.074905 227.626801,223.372543 228.577469,215.535202 
	C226.873016,214.584015 225.003433,214.986679 223.207169,214.983139 
	C208.390030,214.953979 193.572128,214.885208 178.755783,214.999191 
	C165.441574,215.101593 167.549362,213.311279 167.183121,226.806168 
	C167.070694,230.949188 168.797653,231.906616 172.507797,231.834976 
	C181.494736,231.661407 190.487183,231.773605 200.466949,231.769928 
z"/>
<path fill="#FFFFFF" opacity="1.000000" stroke="none" 
	d="
M131.120636,151.298279 
	C135.631119,152.963516 137.773804,155.946136 137.032471,160.274994 
	C136.284103,164.645020 132.995178,166.819824 128.827240,166.911758 
	C119.210121,167.123917 109.578148,167.189957 99.965858,166.884903 
	C94.703789,166.717896 91.611595,163.216049 91.729393,158.730621 
	C91.846672,154.265320 95.102791,151.047821 100.372597,150.986282 
	C110.483818,150.868210 120.599068,151.095230 131.120636,151.298279 
z"/>
<path fill="#FFFFFF" opacity="1.000000" stroke="none" 
	d="
M340.992493,300.366577 
	C334.684387,300.364990 328.873016,300.452606 323.065796,300.334167 
	C317.623901,300.223175 314.704468,297.430206 314.674286,292.613983 
	C314.644135,287.796753 317.594818,284.794525 322.923615,284.723724 
	C332.383148,284.598022 341.847198,284.590210 351.306183,284.737610 
	C356.711487,284.821838 360.080444,288.268250 359.895081,293.012421 
	C359.723907,297.391663 356.294281,300.237732 350.952118,300.345306 
	C347.799561,300.408813 344.644806,300.362701 340.992493,300.366577 
z"/>
</svg>